# Blender 5.0.1
# www.blender.org
mtllib Sphere.mtl
o Sphere
v 0.000000 1.000000 0.000000
v 0.000000 0.831470 -0.555570
v 0.000000 0.555570 -0.831470
v 0.000000 0.195090 -0.980785
v 0.000000 0.000000 -1.000000
v 0.000000 -0.195090 -0.980785
v 0.000000 -0.555570 -0.831470
v 0.000000 -1.000000 0.000000
v 0.038060 0.980785 -0.191342
v 0.074658 0.923880 -0.375330
v 0.108386 0.831470 -0.544895
v 0.137950 0.707107 -0.693520
v 0.162212 0.555570 -0.815493
v 0.180240 0.382683 -0.906127
v 0.191342 0.195090 -0.961940
v 0.195090 0.000000 -0.980785
v 0.191342 -0.195090 -0.961940
v 0.180240 -0.382683 -0.906127
v 0.162212 -0.555570 -0.815493
v 0.137950 -0.707107 -0.693520
v 0.108386 -0.831470 -0.544895
v 0.074658 -0.923880 -0.375330
v 0.038060 -0.980785 -0.191342
v 0.074658 0.980785 -0.180240
v 0.146447 0.923880 -0.353553
v 0.212608 0.831470 -0.513280
v 0.270598 0.707107 -0.653281
v 0.318190 0.555570 -0.768178
v 0.353553 0.382683 -0.853553
v 0.375330 0.195090 -0.906127
v 0.382683 0.000000 -0.923879
v 0.375330 -0.195090 -0.906127
v 0.353553 -0.382683 -0.853553
v 0.318190 -0.555570 -0.768178
v 0.270598 -0.707107 -0.653281
v 0.212608 -0.831470 -0.513280
v 0.146447 -0.923880 -0.353553
v 0.074658 -0.980785 -0.180240
v 0.108386 0.980785 -0.162212
v 0.212608 0.923880 -0.318190
v 0.308658 0.831470 -0.461940
v 0.392847 0.707107 -0.587938
v 0.461940 0.555570 -0.691342
v 0.513280 0.382683 -0.768178
v 0.544895 0.195090 -0.815493
v 0.555570 0.000000 -0.831469
v 0.544895 -0.195090 -0.815493
v 0.513280 -0.382683 -0.768178
v 0.461940 -0.555570 -0.691342
v 0.392847 -0.707107 -0.587938
v 0.308658 -0.831470 -0.461940
v 0.212608 -0.923880 -0.318190
v 0.108386 -0.980785 -0.162212
v 0.137950 0.980785 -0.137950
v 0.270598 0.923880 -0.270598
v 0.392847 0.831470 -0.392847
v 0.500000 0.707107 -0.500000
v 0.587938 0.555570 -0.587938
v 0.653281 0.382683 -0.653281
v 0.693520 0.195090 -0.693520
v 0.707107 0.000000 -0.707107
v 0.693520 -0.195090 -0.693520
v 0.653281 -0.382683 -0.653281
v 0.587938 -0.555570 -0.587938
v 0.500000 -0.707107 -0.500000
v 0.392847 -0.831470 -0.392847
v 0.270598 -0.923880 -0.270598
v 0.137950 -0.980785 -0.137950
v 0.162212 0.980785 -0.108386
v 0.318190 0.923880 -0.212608
v 0.461940 0.831470 -0.308658
v 0.587938 0.707107 -0.392847
v 0.691342 0.555570 -0.461940
v 0.768178 0.382683 -0.513280
v 0.815493 0.195090 -0.544895
v 0.831470 0.000000 -0.555570
v 0.815493 -0.195090 -0.544895
v 0.768178 -0.382683 -0.513280
v 0.691342 -0.555570 -0.461940
v 0.587938 -0.707107 -0.392847
v 0.461940 -0.831470 -0.308658
v 0.318190 -0.923880 -0.212608
v 0.162212 -0.980785 -0.108386
v 0.180240 0.980785 -0.074658
v 0.353553 0.923880 -0.146447
v 0.513280 0.831470 -0.212607
v 0.653281 0.707107 -0.270598
v 0.768178 0.555570 -0.318190
v 0.853553 0.382683 -0.353553
v 0.906127 0.195090 -0.375330
v 0.923879 0.000000 -0.382683
v 0.906127 -0.195090 -0.375330
v 0.853553 -0.382683 -0.353553
v 0.768178 -0.555570 -0.318190
v 0.653281 -0.707107 -0.270598
v 0.513280 -0.831470 -0.212607
v 0.353553 -0.923880 -0.146447
v 0.180240 -0.980785 -0.074658
v 0.191342 0.980785 -0.038060
v 0.375330 0.923880 -0.074658
v 0.544895 0.831470 -0.108386
v 0.693520 0.707107 -0.137950
v 0.815493 0.555570 -0.162212
v 0.906127 0.382683 -0.180240
v 0.961940 0.195090 -0.191342
v 0.980785 0.000000 -0.195090
v 0.961940 -0.195090 -0.191342
v 0.906127 -0.382683 -0.180240
v 0.815493 -0.555570 -0.162212
v 0.693520 -0.707107 -0.137950
v 0.544895 -0.831470 -0.108386
v 0.375330 -0.923880 -0.074658
v 0.191342 -0.980785 -0.038060
v 0.195090 0.980785 0.000000
v 0.382683 0.923880 0.000000
v 0.555570 0.831470 0.000000
v 0.707107 0.707107 -0.000000
v 0.831469 0.555570 0.000000
v 0.923879 0.382683 -0.000000
v 0.980785 0.195090 0.000000
v 1.000000 0.000000 0.000000
v 0.980785 -0.195090 0.000000
v 0.923879 -0.382683 -0.000000
v 0.831469 -0.555570 0.000000
v 0.707107 -0.707107 -0.000000
v 0.555570 -0.831470 0.000000
v 0.382683 -0.923880 0.000000
v 0.195090 -0.980785 0.000000
v 0.191342 0.980785 0.038060
v 0.375330 0.923880 0.074658
v 0.544895 0.831470 0.108386
v 0.693520 0.707107 0.137950
v 0.815493 0.555570 0.162212
v 0.906127 0.382683 0.180240
v 0.961940 0.195090 0.191342
v 0.980785 0.000000 0.195090
v 0.961940 -0.195090 0.191342
v 0.906127 -0.382683 0.180240
v 0.815493 -0.555570 0.162212
v 0.693520 -0.707107 0.137950
v 0.544895 -0.831470 0.108386
v 0.375330 -0.923880 0.074658
v 0.191342 -0.980785 0.038060
v 0.180240 0.980785 0.074658
v 0.353553 0.923880 0.146447
v 0.513280 0.831470 0.212608
v 0.653281 0.707107 0.270598
v 0.768178 0.555570 0.318190
v 0.853553 0.382683 0.353553
v 0.906127 0.195090 0.375330
v 0.923879 0.000000 0.382683
v 0.906127 -0.195090 0.375330
v 0.853553 -0.382683 0.353553
v 0.768178 -0.555570 0.318190
v 0.653281 -0.707107 0.270598
v 0.513280 -0.831470 0.212608
v 0.353553 -0.923880 0.146447
v 0.180240 -0.980785 0.074658
v 0.162212 0.980785 0.108386
v 0.318190 0.923880 0.212608
v 0.461940 0.831470 0.308658
v 0.587938 0.707107 0.392847
v 0.691341 0.555570 0.461940
v 0.768178 0.382683 0.513280
v 0.815493 0.195090 0.544895
v 0.831469 0.000000 0.555570
v 0.815493 -0.195090 0.544895
v 0.768178 -0.382683 0.513280
v 0.691341 -0.555570 0.461940
v 0.587938 -0.707107 0.392847
v 0.461940 -0.831470 0.308658
v 0.318190 -0.923880 0.212608
v 0.162212 -0.980785 0.108386
v 0.137950 0.980785 0.137950
v 0.270598 0.923880 0.270598
v 0.392847 0.831470 0.392847
v 0.500000 0.707107 0.500000
v 0.587938 0.555570 0.587938
v 0.653281 0.382683 0.653281
v 0.693520 0.195090 0.693520
v 0.707106 0.000000 0.707107
v 0.693520 -0.195090 0.693520
v 0.653281 -0.382683 0.653281
v 0.587938 -0.555570 0.587938
v 0.500000 -0.707107 0.500000
v 0.392847 -0.831470 0.392847
v 0.270598 -0.923880 0.270598
v 0.137950 -0.980785 0.137950
v 0.108386 0.980785 0.162212
v 0.212607 0.923880 0.318190
v 0.308658 0.831470 0.461940
v 0.392847 0.707107 0.587938
v 0.461940 0.555570 0.691342
v 0.513280 0.382683 0.768178
v 0.544895 0.195090 0.815493
v 0.555570 0.000000 0.831469
v 0.544895 -0.195090 0.815493
v 0.513280 -0.382683 0.768178
v 0.461940 -0.555570 0.691342
v 0.392847 -0.707107 0.587938
v 0.308658 -0.831470 0.461940
v 0.212607 -0.923880 0.318190
v 0.108386 -0.980785 0.162212
v 0.074658 0.980785 0.180240
v 0.146447 0.923880 0.353553
v 0.212607 0.831470 0.513280
v 0.270598 0.707107 0.653281
v 0.318189 0.555570 0.768178
v 0.353553 0.382683 0.853553
v 0.375330 0.195090 0.906127
v 0.382683 0.000000 0.923879
v 0.375330 -0.195090 0.906127
v 0.353553 -0.382683 0.853553
v 0.318189 -0.555570 0.768178
v 0.270598 -0.707107 0.653281
v 0.212607 -0.831470 0.513280
v 0.146447 -0.923880 0.353553
v 0.074658 -0.980785 0.180240
v 0.038060 0.980785 0.191342
v 0.074658 0.923880 0.375330
v 0.108386 0.831470 0.544895
v 0.137950 0.707107 0.693520
v 0.162212 0.555570 0.815493
v 0.180240 0.382683 0.906127
v 0.191342 0.195090 0.961939
v 0.195090 0.000000 0.980785
v 0.191342 -0.195090 0.961939
v 0.180240 -0.382683 0.906127
v 0.162212 -0.555570 0.815493
v 0.137950 -0.707107 0.693520
v 0.108386 -0.831470 0.544895
v 0.074658 -0.923880 0.375330
v 0.038060 -0.980785 0.191342
v -0.000000 0.980785 0.195090
v -0.000000 0.923880 0.382683
v -0.000000 0.831470 0.555570
v -0.000000 0.707107 0.707107
v -0.000000 0.555570 0.831469
v 0.000000 0.382683 0.923879
v -0.000000 0.195090 0.980785
v -0.000000 0.000000 0.999999
v -0.000000 -0.195090 0.980785
v 0.000000 -0.382683 0.923879
v -0.000000 -0.555570 0.831469
v -0.000000 -0.707107 0.707107
v -0.000000 -0.831470 0.555570
v -0.000000 -0.923880 0.382683
v -0.000000 -0.980785 0.195090
v -0.038060 0.980785 0.191342
v -0.074658 0.923880 0.375330
v -0.108386 0.831470 0.544895
v -0.137950 0.707107 0.693520
v -0.162212 0.555570 0.815493
v -0.180240 0.382683 0.906127
v -0.191342 0.195090 0.961939
v -0.195091 0.000000 0.980785
v -0.191342 -0.195090 0.961939
v -0.180240 -0.382683 0.906127
v -0.162212 -0.555570 0.815493
v -0.137950 -0.707107 0.693520
v -0.108386 -0.831470 0.544895
v -0.074658 -0.923880 0.375330
v -0.038060 -0.980785 0.191342
v -0.074658 0.980785 0.180240
v -0.146447 0.923880 0.353553
v -0.212608 0.831470 0.513280
v -0.270598 0.707107 0.653281
v -0.318190 0.555570 0.768177
v -0.353553 0.382683 0.853553
v -0.375330 0.195090 0.906127
v -0.382683 0.000000 0.923879
v -0.375330 -0.195090 0.906127
v -0.353553 -0.382683 0.853553
v -0.318190 -0.555570 0.768177
v -0.270598 -0.707107 0.653281
v -0.212608 -0.831470 0.513280
v -0.146447 -0.923880 0.353553
v -0.074658 -0.980785 0.180240
v -0.108386 0.980785 0.162212
v -0.212608 0.923880 0.318190
v -0.308658 0.831470 0.461939
v -0.392847 0.707107 0.587938
v -0.461940 0.555570 0.691341
v -0.513280 0.382683 0.768178
v -0.544895 0.195090 0.815493
v -0.555570 0.000000 0.831469
v -0.544895 -0.195090 0.815493
v -0.513280 -0.382683 0.768178
v -0.461940 -0.555570 0.691341
v -0.392847 -0.707107 0.587938
v -0.308658 -0.831470 0.461939
v -0.212608 -0.923880 0.318190
v -0.108386 -0.980785 0.162212
v -0.137950 0.980785 0.137950
v -0.270598 0.923880 0.270598
v -0.392847 0.831470 0.392847
v -0.500000 0.707107 0.500000
v -0.587938 0.555570 0.587937
v -0.653281 0.382683 0.653281
v -0.693520 0.195090 0.693520
v -0.707106 0.000000 0.707106
v -0.693520 -0.195090 0.693520
v -0.653281 -0.382683 0.653281
v -0.587938 -0.555570 0.587937
v -0.500000 -0.707107 0.500000
v -0.392847 -0.831470 0.392847
v -0.270598 -0.923880 0.270598
v -0.137950 -0.980785 0.137950
v -0.162212 0.980785 0.108386
v -0.318190 0.923880 0.212607
v -0.461940 0.831470 0.308658
v -0.587938 0.707107 0.392847
v -0.691341 0.555570 0.461939
v -0.768177 0.382683 0.513280
v -0.815493 0.195090 0.544895
v -0.831469 0.000000 0.555569
v -0.815493 -0.195090 0.544895
v -0.768177 -0.382683 0.513280
v -0.691341 -0.555570 0.461939
v -0.587938 -0.707107 0.392847
v -0.461940 -0.831470 0.308658
v -0.318190 -0.923880 0.212607
v -0.162212 -0.980785 0.108386
v -0.180240 0.980785 0.074658
v -0.353553 0.923880 0.146447
v -0.513280 0.831470 0.212607
v -0.653281 0.707107 0.270598
v -0.768177 0.555570 0.318189
v -0.853553 0.382683 0.353553
v -0.906127 0.195090 0.375330
v -0.923879 0.000000 0.382683
v -0.906127 -0.195090 0.375330
v -0.853553 -0.382683 0.353553
v -0.768177 -0.555570 0.318189
v -0.653281 -0.707107 0.270598
v -0.513280 -0.831470 0.212607
v -0.353553 -0.923880 0.146447
v -0.180240 -0.980785 0.074658
v -0.191342 0.980785 0.038060
v -0.375330 0.923880 0.074658
v -0.544895 0.831470 0.108386
v -0.693520 0.707107 0.137950
v -0.815493 0.555570 0.162211
v -0.906127 0.382683 0.180240
v -0.961939 0.195090 0.191341
v -0.980784 0.000000 0.195090
v -0.961939 -0.195090 0.191341
v -0.906127 -0.382683 0.180240
v -0.815493 -0.555570 0.162211
v -0.693520 -0.707107 0.137950
v -0.544895 -0.831470 0.108386
v -0.375330 -0.923880 0.074658
v -0.191342 -0.980785 0.038060
v -0.195090 0.980785 -0.000000
v -0.382683 0.923880 -0.000000
v -0.555570 0.831470 -0.000000
v -0.707107 0.707107 -0.000000
v -0.831469 0.555570 -0.000000
v -0.923879 0.382683 -0.000000
v -0.980785 0.195090 -0.000000
v -0.999999 0.000000 -0.000000
v -0.980785 -0.195090 -0.000000
v -0.923879 -0.382683 -0.000000
v -0.831469 -0.555570 -0.000000
v -0.707107 -0.707107 -0.000000
v -0.555570 -0.831470 -0.000000
v -0.382683 -0.923880 -0.000000
v -0.195090 -0.980785 -0.000000
v -0.191342 0.980785 -0.038060
v -0.375330 0.923880 -0.074658
v -0.544895 0.831470 -0.108386
v -0.693520 0.707107 -0.137950
v -0.815493 0.555570 -0.162212
v -0.906127 0.382683 -0.180240
v -0.961939 0.195090 -0.191342
v -0.980784 0.000000 -0.195091
v -0.961939 -0.195090 -0.191342
v -0.906127 -0.382683 -0.180240
v -0.815493 -0.555570 -0.162212
v -0.693520 -0.707107 -0.137950
v -0.544895 -0.831470 -0.108386
v -0.375330 -0.923880 -0.074658
v -0.191342 -0.980785 -0.038060
v -0.180240 0.980785 -0.074658
v -0.353553 0.923880 -0.146447
v -0.513279 0.831470 -0.212607
v -0.653281 0.707107 -0.270598
v -0.768177 0.555570 -0.318190
v -0.853553 0.382683 -0.353553
v -0.906127 0.195090 -0.375330
v -0.923878 0.000000 -0.382683
v -0.906127 -0.195090 -0.375330
v -0.853553 -0.382683 -0.353553
v -0.768177 -0.555570 -0.318190
v -0.653281 -0.707107 -0.270598
v -0.513279 -0.831470 -0.212607
v -0.353553 -0.923880 -0.146447
v -0.180240 -0.980785 -0.074658
v -0.162212 0.980785 -0.108386
v -0.318189 0.923880 -0.212607
v -0.461939 0.831470 -0.308658
v -0.587938 0.707107 -0.392847
v -0.691341 0.555570 -0.461940
v -0.768177 0.382683 -0.513280
v -0.815493 0.195090 -0.544895
v -0.831468 0.000000 -0.555570
v -0.815493 -0.195090 -0.544895
v -0.768177 -0.382683 -0.513280
v -0.691341 -0.555570 -0.461940
v -0.587938 -0.707107 -0.392847
v -0.461939 -0.831470 -0.308658
v -0.318189 -0.923880 -0.212607
v -0.162212 -0.980785 -0.108386
v -0.137950 0.980785 -0.137950
v -0.270598 0.923880 -0.270598
v -0.392847 0.831470 -0.392847
v -0.500000 0.707107 -0.500000
v -0.587937 0.555570 -0.587938
v -0.653281 0.382683 -0.653281
v -0.693519 0.195090 -0.693520
v -0.707106 0.000000 -0.707106
v -0.693519 -0.195090 -0.693520
v -0.653281 -0.382683 -0.653281
v -0.587937 -0.555570 -0.587938
v -0.500000 -0.707107 -0.500000
v -0.392847 -0.831470 -0.392847
v -0.270598 -0.923880 -0.270598
v -0.137950 -0.980785 -0.137950
v -0.108386 0.980785 -0.162212
v -0.212607 0.923880 -0.318190
v -0.308658 0.831470 -0.461939
v -0.392847 0.707107 -0.587938
v -0.461939 0.555570 -0.691341
v -0.513280 0.382683 -0.768177
v -0.544895 0.195090 -0.815493
v -0.555569 0.000000 -0.831469
v -0.544895 -0.195090 -0.815493
v -0.513280 -0.382683 -0.768177
v -0.461939 -0.555570 -0.691341
v -0.392847 -0.707107 -0.587938
v -0.308658 -0.831470 -0.461939
v -0.212607 -0.923880 -0.318190
v -0.108386 -0.980785 -0.162212
v -0.074658 0.980785 -0.180240
v -0.146446 0.923880 -0.353553
v -0.212607 0.831470 -0.513279
v -0.270598 0.707107 -0.653281
v -0.318189 0.555570 -0.768177
v -0.353553 0.382683 -0.853553
v -0.375330 0.195090 -0.906127
v -0.382683 0.000000 -0.923879
v -0.375330 -0.195090 -0.906127
v -0.353553 -0.382683 -0.853553
v -0.318189 -0.555570 -0.768177
v -0.270598 -0.707107 -0.653281
v -0.212607 -0.831470 -0.513279
v -0.146446 -0.923880 -0.353553
v -0.074658 -0.980785 -0.180240
v -0.038060 0.980785 -0.191342
v -0.074658 0.923880 -0.375330
v -0.108386 0.831470 -0.544895
v -0.137950 0.707107 -0.693520
v -0.162211 0.555570 -0.815493
v -0.180240 0.382683 -0.906127
v -0.191341 0.195090 -0.961939
v -0.195090 0.000000 -0.980784
v -0.191341 -0.195090 -0.961939
v -0.180240 -0.382683 -0.906127
v -0.162211 -0.555570 -0.815493
v -0.137950 -0.707107 -0.693520
v -0.108386 -0.831470 -0.544895
v -0.074658 -0.923880 -0.375330
v -0.038060 -0.980785 -0.191342
v 0.000000 0.980785 -0.195090
v 0.000000 0.923880 -0.382683
v 0.000000 0.707107 -0.707107
v 0.000000 0.382683 -0.923879
v 0.000000 -0.382683 -0.923879
v 0.000000 -0.707107 -0.707107
v 0.000000 -0.831470 -0.555570
v 0.000000 -0.923880 -0.382683
v 0.000000 -0.980785 -0.195090
vn 0.0464 0.8810 -0.4709
vn 0.0865 -0.4696 -0.8786
vn 0.0624 0.7715 -0.6332
vn 0.0759 -0.6326 -0.7708
vn 0.0759 0.6326 -0.7708
vn 0.0624 -0.7715 -0.6332
vn 0.0865 0.4696 -0.8786
vn 0.0464 -0.8810 -0.4709
vn 0.0938 0.2890 -0.9527
vn 0.0286 -0.9565 -0.2902
vn 0.0975 0.0975 -0.9904
vn 0.0097 0.9951 -0.0980
vn 0.0097 -0.9951 -0.0980
vn 0.0975 -0.0976 -0.9904
vn 0.0286 0.9565 -0.2902
vn 0.0938 -0.2890 -0.9527
vn 0.2889 -0.0976 -0.9524
vn 0.0846 0.9565 -0.2790
vn 0.2779 -0.2890 -0.9161
vn 0.1374 0.8810 -0.4528
vn 0.2563 -0.4696 -0.8448
vn 0.1847 0.7715 -0.6088
vn 0.2248 -0.6326 -0.7412
vn 0.2248 0.6326 -0.7412
vn 0.1847 -0.7715 -0.6088
vn 0.2563 0.4696 -0.8448
vn 0.1374 -0.8810 -0.4528
vn 0.2779 0.2890 -0.9161
vn 0.0846 -0.9565 -0.2790
vn 0.2889 0.0976 -0.9524
vn 0.0286 0.9951 -0.0942
vn 0.0286 -0.9951 -0.0942
vn 0.2999 -0.7715 -0.5611
vn 0.4162 0.4696 -0.7786
vn 0.2230 -0.8810 -0.4173
vn 0.4513 0.2890 -0.8443
vn 0.1374 -0.9565 -0.2571
vn 0.4691 0.0975 -0.8777
vn 0.0464 0.9951 -0.0869
vn 0.0464 -0.9951 -0.0869
vn 0.4691 -0.0975 -0.8777
vn 0.1374 0.9565 -0.2571
vn 0.4513 -0.2890 -0.8443
vn 0.2231 0.8810 -0.4173
vn 0.4162 -0.4696 -0.7786
vn 0.2999 0.7715 -0.5611
vn 0.3651 -0.6326 -0.6831
vn 0.3651 0.6326 -0.6831
vn 0.6073 -0.2890 -0.7400
vn 0.3002 0.8810 -0.3658
vn 0.5601 -0.4696 -0.6825
vn 0.4036 0.7715 -0.4918
vn 0.4913 -0.6326 -0.5987
vn 0.4913 0.6326 -0.5987
vn 0.4036 -0.7715 -0.4918
vn 0.5601 0.4696 -0.6825
vn 0.3002 -0.8810 -0.3658
vn 0.6073 0.2890 -0.7400
vn 0.1850 -0.9565 -0.2254
vn 0.6314 0.0975 -0.7693
vn 0.0625 0.9951 -0.0761
vn 0.0625 -0.9951 -0.0761
vn 0.6314 -0.0975 -0.7693
vn 0.1850 0.9565 -0.2254
vn 0.3658 -0.8810 -0.3002
vn 0.7400 0.2890 -0.6073
vn 0.2254 -0.9566 -0.1850
vn 0.7693 0.0975 -0.6314
vn 0.0761 0.9951 -0.0625
vn 0.0761 -0.9951 -0.0625
vn 0.7693 -0.0975 -0.6314
vn 0.2254 0.9565 -0.1850
vn 0.7400 -0.2890 -0.6073
vn 0.3658 0.8810 -0.3002
vn 0.6825 -0.4696 -0.5601
vn 0.4918 0.7715 -0.4036
vn 0.5987 -0.6326 -0.4913
vn 0.5987 0.6326 -0.4913
vn 0.4918 -0.7715 -0.4036
vn 0.6825 0.4696 -0.5601
vn 0.4173 0.8810 -0.2230
vn 0.7786 -0.4696 -0.4162
vn 0.5611 0.7715 -0.2999
vn 0.6831 -0.6326 -0.3651
vn 0.6831 0.6326 -0.3651
vn 0.5611 -0.7715 -0.2999
vn 0.7786 0.4696 -0.4162
vn 0.4173 -0.8810 -0.2230
vn 0.8443 0.2890 -0.4513
vn 0.2571 -0.9565 -0.1374
vn 0.8777 0.0975 -0.4691
vn 0.0869 0.9951 -0.0464
vn 0.0869 -0.9951 -0.0464
vn 0.8777 -0.0975 -0.4691
vn 0.2571 0.9565 -0.1374
vn 0.8443 -0.2890 -0.4513
vn 0.9161 0.2890 -0.2779
vn 0.2790 -0.9565 -0.0846
vn 0.9524 0.0975 -0.2889
vn 0.0942 0.9951 -0.0286
vn 0.0942 -0.9951 -0.0286
vn 0.9524 -0.0975 -0.2889
vn 0.2790 0.9565 -0.0846
vn 0.9161 -0.2890 -0.2779
vn 0.4528 0.8810 -0.1374
vn 0.8448 -0.4696 -0.2563
vn 0.6088 0.7715 -0.1847
vn 0.7412 -0.6326 -0.2248
vn 0.7412 0.6326 -0.2248
vn 0.6088 -0.7715 -0.1847
vn 0.8448 0.4696 -0.2563
vn 0.4528 -0.8810 -0.1374
vn 0.8786 -0.4696 -0.0865
vn 0.6332 0.7715 -0.0624
vn 0.7708 -0.6326 -0.0759
vn 0.7708 0.6326 -0.0759
vn 0.6332 -0.7715 -0.0624
vn 0.8786 0.4696 -0.0865
vn 0.4709 -0.8810 -0.0464
vn 0.9527 0.2890 -0.0938
vn 0.2902 -0.9565 -0.0286
vn 0.9904 0.0975 -0.0975
vn 0.0980 0.9951 -0.0097
vn 0.0980 -0.9951 -0.0097
vn 0.9904 -0.0975 -0.0975
vn 0.2902 0.9565 -0.0286
vn 0.9527 -0.2890 -0.0938
vn 0.4709 0.8810 -0.0464
vn 0.2902 -0.9565 0.0286
vn 0.9904 0.0975 0.0976
vn 0.0980 0.9951 0.0097
vn 0.0980 -0.9951 0.0097
vn 0.9904 -0.0975 0.0976
vn 0.2902 0.9565 0.0286
vn 0.9527 -0.2890 0.0938
vn 0.4709 0.8810 0.0464
vn 0.8786 -0.4696 0.0865
vn 0.6332 0.7715 0.0624
vn 0.7708 -0.6326 0.0759
vn 0.7708 0.6326 0.0759
vn 0.6332 -0.7715 0.0624
vn 0.8786 0.4696 0.0865
vn 0.4709 -0.8810 0.0464
vn 0.9527 0.2890 0.0938
vn 0.6088 0.7715 0.1847
vn 0.7412 -0.6326 0.2248
vn 0.7412 0.6326 0.2248
vn 0.6088 -0.7715 0.1847
vn 0.8448 0.4696 0.2563
vn 0.4528 -0.8810 0.1374
vn 0.9161 0.2890 0.2779
vn 0.2790 -0.9565 0.0846
vn 0.9524 0.0975 0.2889
vn 0.0942 0.9951 0.0286
vn 0.0942 -0.9951 0.0286
vn 0.9524 -0.0975 0.2889
vn 0.2790 0.9565 0.0846
vn 0.9161 -0.2890 0.2779
vn 0.4528 0.8810 0.1374
vn 0.8448 -0.4696 0.2563
vn 0.8777 0.0975 0.4691
vn 0.0869 0.9951 0.0464
vn 0.0869 -0.9951 0.0464
vn 0.8777 -0.0975 0.4691
vn 0.2571 0.9565 0.1374
vn 0.8443 -0.2890 0.4513
vn 0.4173 0.8810 0.2231
vn 0.7786 -0.4696 0.4162
vn 0.5611 0.7715 0.2999
vn 0.6831 -0.6326 0.3651
vn 0.6831 0.6326 0.3651
vn 0.5611 -0.7715 0.2999
vn 0.7786 0.4696 0.4162
vn 0.4173 -0.8810 0.2230
vn 0.8443 0.2890 0.4513
vn 0.2571 -0.9565 0.1374
vn 0.5987 -0.6326 0.4913
vn 0.5987 0.6326 0.4913
vn 0.4918 -0.7715 0.4036
vn 0.6825 0.4696 0.5601
vn 0.3658 -0.8810 0.3002
vn 0.7400 0.2890 0.6073
vn 0.2254 -0.9565 0.1850
vn 0.7693 0.0975 0.6314
vn 0.0761 0.9951 0.0625
vn 0.0761 -0.9951 0.0625
vn 0.7693 -0.0975 0.6314
vn 0.2254 0.9565 0.1850
vn 0.7400 -0.2890 0.6073
vn 0.3658 0.8810 0.3002
vn 0.6825 -0.4696 0.5601
vn 0.4918 0.7715 0.4036
vn 0.0625 -0.9951 0.0761
vn 0.6314 -0.0975 0.7693
vn 0.1850 0.9565 0.2254
vn 0.6073 -0.2890 0.7400
vn 0.3002 0.8810 0.3658
vn 0.5601 -0.4696 0.6825
vn 0.4036 0.7715 0.4918
vn 0.4913 -0.6326 0.5987
vn 0.4913 0.6326 0.5987
vn 0.4036 -0.7715 0.4918
vn 0.5601 0.4696 0.6825
vn 0.3002 -0.8810 0.3658
vn 0.6073 0.2890 0.7400
vn 0.1850 -0.9565 0.2254
vn 0.6314 0.0975 0.7693
vn 0.0625 0.9951 0.0761
vn 0.2999 -0.7715 0.5611
vn 0.4162 0.4696 0.7786
vn 0.2230 -0.8810 0.4173
vn 0.4513 0.2890 0.8443
vn 0.1374 -0.9565 0.2571
vn 0.4691 0.0975 0.8777
vn 0.0464 0.9951 0.0869
vn 0.0464 -0.9951 0.0869
vn 0.4691 -0.0975 0.8777
vn 0.1374 0.9565 0.2571
vn 0.4513 -0.2890 0.8443
vn 0.2230 0.8810 0.4173
vn 0.4162 -0.4696 0.7786
vn 0.2999 0.7715 0.5611
vn 0.3651 -0.6326 0.6831
vn 0.3651 0.6326 0.6831
vn 0.0846 0.9565 0.2790
vn 0.2779 -0.2890 0.9161
vn 0.1374 0.8810 0.4528
vn 0.2563 -0.4696 0.8448
vn 0.1847 0.7715 0.6088
vn 0.2248 -0.6326 0.7412
vn 0.2248 0.6326 0.7412
vn 0.1847 -0.7715 0.6088
vn 0.2563 0.4696 0.8448
vn 0.1374 -0.8810 0.4528
vn 0.2779 0.2890 0.9161
vn 0.0846 -0.9565 0.2790
vn 0.2889 0.0975 0.9524
vn 0.0286 0.9951 0.0942
vn 0.0286 -0.9951 0.0942
vn 0.2889 -0.0975 0.9524
vn 0.0865 0.4696 0.8786
vn 0.0464 -0.8810 0.4709
vn 0.0938 0.2890 0.9527
vn 0.0286 -0.9565 0.2902
vn 0.0975 0.0975 0.9904
vn 0.0097 0.9951 0.0980
vn 0.0097 -0.9951 0.0980
vn 0.0975 -0.0975 0.9904
vn 0.0286 0.9565 0.2902
vn 0.0938 -0.2890 0.9527
vn 0.0464 0.8810 0.4709
vn 0.0865 -0.4696 0.8786
vn 0.0624 0.7715 0.6332
vn 0.0759 -0.6326 0.7708
vn 0.0759 0.6326 0.7708
vn 0.0624 -0.7715 0.6332
vn -0.0938 -0.2890 0.9527
vn -0.0464 0.8810 0.4709
vn -0.0865 -0.4696 0.8786
vn -0.0624 0.7715 0.6332
vn -0.0759 -0.6326 0.7708
vn -0.0759 0.6326 0.7708
vn -0.0624 -0.7715 0.6332
vn -0.0865 0.4696 0.8786
vn -0.0464 -0.8810 0.4709
vn -0.0938 0.2890 0.9527
vn -0.0286 -0.9565 0.2902
vn -0.0976 0.0975 0.9904
vn -0.0097 0.9951 0.0980
vn -0.0097 -0.9951 0.0980
vn -0.0975 -0.0975 0.9904
vn -0.0286 0.9565 0.2902
vn -0.1374 -0.8810 0.4528
vn -0.2779 0.2890 0.9161
vn -0.0846 -0.9565 0.2790
vn -0.2889 0.0975 0.9524
vn -0.0286 0.9951 0.0942
vn -0.0286 -0.9951 0.0942
vn -0.2889 -0.0975 0.9524
vn -0.0846 0.9565 0.2790
vn -0.2779 -0.2890 0.9161
vn -0.1374 0.8810 0.4528
vn -0.2563 -0.4696 0.8448
vn -0.1847 0.7715 0.6088
vn -0.2248 -0.6326 0.7412
vn -0.2248 0.6326 0.7412
vn -0.1847 -0.7715 0.6088
vn -0.2563 0.4696 0.8448
vn -0.2230 0.8810 0.4173
vn -0.4162 -0.4696 0.7786
vn -0.2999 0.7715 0.5611
vn -0.3651 -0.6326 0.6831
vn -0.3651 0.6326 0.6831
vn -0.2999 -0.7715 0.5611
vn -0.4162 0.4696 0.7786
vn -0.2230 -0.8810 0.4173
vn -0.4513 0.2890 0.8443
vn -0.1374 -0.9565 0.2571
vn -0.4691 0.0975 0.8777
vn -0.0464 0.9951 0.0869
vn -0.0464 -0.9951 0.0869
vn -0.4691 -0.0975 0.8777
vn -0.1374 0.9565 0.2571
vn -0.4513 -0.2890 0.8443
vn -0.6073 0.2890 0.7400
vn -0.1850 -0.9565 0.2254
vn -0.6314 0.0975 0.7693
vn -0.0625 0.9951 0.0761
vn -0.0625 -0.9951 0.0761
vn -0.6314 -0.0975 0.7693
vn -0.1850 0.9565 0.2254
vn -0.6073 -0.2890 0.7400
vn -0.3002 0.8810 0.3658
vn -0.5601 -0.4696 0.6825
vn -0.4036 0.7715 0.4918
vn -0.4913 -0.6326 0.5987
vn -0.4913 0.6326 0.5987
vn -0.4036 -0.7715 0.4918
vn -0.5601 0.4696 0.6825
vn -0.3002 -0.8810 0.3658
vn -0.6825 -0.4696 0.5601
vn -0.4918 0.7715 0.4036
vn -0.5987 -0.6326 0.4913
vn -0.5987 0.6326 0.4913
vn -0.4918 -0.7715 0.4036
vn -0.6825 0.4696 0.5601
vn -0.3658 -0.8810 0.3002
vn -0.7400 0.2890 0.6073
vn -0.2254 -0.9566 0.1850
vn -0.7693 0.0975 0.6314
vn -0.0761 0.9951 0.0625
vn -0.0761 -0.9951 0.0625
vn -0.7693 -0.0975 0.6314
vn -0.2254 0.9565 0.1850
vn -0.7400 -0.2890 0.6073
vn -0.3658 0.8810 0.3002
vn -0.2571 -0.9565 0.1374
vn -0.8777 0.0975 0.4691
vn -0.0869 0.9951 0.0464
vn -0.0869 -0.9951 0.0464
vn -0.8777 -0.0975 0.4691
vn -0.2571 0.9565 0.1374
vn -0.8443 -0.2890 0.4513
vn -0.4173 0.8810 0.2230
vn -0.7786 -0.4696 0.4162
vn -0.5611 0.7715 0.2999
vn -0.6831 -0.6326 0.3651
vn -0.6831 0.6326 0.3651
vn -0.5611 -0.7715 0.2999
vn -0.7786 0.4696 0.4162
vn -0.4173 -0.8810 0.2231
vn -0.8443 0.2890 0.4513
vn -0.7412 -0.6326 0.2248
vn -0.7412 0.6326 0.2248
vn -0.6088 -0.7715 0.1847
vn -0.8448 0.4696 0.2563
vn -0.4528 -0.8810 0.1374
vn -0.9161 0.2890 0.2779
vn -0.2790 -0.9565 0.0846
vn -0.9524 0.0975 0.2889
vn -0.0942 0.9951 0.0286
vn -0.0942 -0.9951 0.0286
vn -0.9524 -0.0975 0.2889
vn -0.2790 0.9565 0.0846
vn -0.9161 -0.2890 0.2779
vn -0.4528 0.8810 0.1374
vn -0.8448 -0.4696 0.2563
vn -0.6088 0.7715 0.1847
vn -0.0980 0.9951 0.0097
vn -0.0980 -0.9951 0.0097
vn -0.9904 -0.0975 0.0976
vn -0.2902 0.9565 0.0286
vn -0.9527 -0.2890 0.0938
vn -0.4709 0.8810 0.0464
vn -0.8786 -0.4696 0.0865
vn -0.6332 0.7715 0.0624
vn -0.7708 -0.6326 0.0759
vn -0.7708 0.6326 0.0759
vn -0.6332 -0.7715 0.0624
vn -0.8786 0.4696 0.0865
vn -0.4709 -0.8810 0.0464
vn -0.9527 0.2890 0.0938
vn -0.2902 -0.9565 0.0286
vn -0.9904 0.0975 0.0975
vn -0.7708 0.6326 -0.0759
vn -0.6332 -0.7715 -0.0624
vn -0.8786 0.4696 -0.0865
vn -0.4709 -0.8810 -0.0464
vn -0.9527 0.2890 -0.0938
vn -0.2902 -0.9565 -0.0286
vn -0.9904 0.0975 -0.0975
vn -0.0980 0.9951 -0.0097
vn -0.0980 -0.9951 -0.0097
vn -0.9904 -0.0975 -0.0976
vn -0.2902 0.9565 -0.0286
vn -0.9527 -0.2890 -0.0938
vn -0.4709 0.8810 -0.0464
vn -0.8786 -0.4696 -0.0865
vn -0.6332 0.7715 -0.0624
vn -0.7708 -0.6326 -0.0759
vn -0.9524 -0.0975 -0.2889
vn -0.2790 0.9565 -0.0846
vn -0.9161 -0.2890 -0.2779
vn -0.4528 0.8810 -0.1374
vn -0.8448 -0.4696 -0.2563
vn -0.6088 0.7715 -0.1847
vn -0.7412 -0.6326 -0.2248
vn -0.7412 0.6326 -0.2248
vn -0.6088 -0.7715 -0.1847
vn -0.8448 0.4696 -0.2563
vn -0.4528 -0.8810 -0.1374
vn -0.9161 0.2890 -0.2779
vn -0.2790 -0.9565 -0.0846
vn -0.9524 0.0975 -0.2889
vn -0.0942 0.9951 -0.0286
vn -0.0942 -0.9951 -0.0286
vn -0.5611 -0.7715 -0.2999
vn -0.7786 0.4696 -0.4162
vn -0.4173 -0.8810 -0.2231
vn -0.8443 0.2890 -0.4513
vn -0.2571 -0.9565 -0.1374
vn -0.8777 0.0975 -0.4691
vn -0.0869 0.9951 -0.0464
vn -0.0869 -0.9951 -0.0464
vn -0.8777 -0.0975 -0.4691
vn -0.2571 0.9565 -0.1374
vn -0.8443 -0.2890 -0.4513
vn -0.4173 0.8810 -0.2231
vn -0.7786 -0.4696 -0.4162
vn -0.5611 0.7715 -0.2999
vn -0.6831 -0.6326 -0.3651
vn -0.6831 0.6326 -0.3651
vn -0.2254 0.9565 -0.1850
vn -0.7400 -0.2890 -0.6073
vn -0.3658 0.8810 -0.3002
vn -0.6825 -0.4696 -0.5601
vn -0.4918 0.7715 -0.4036
vn -0.5987 -0.6326 -0.4913
vn -0.5987 0.6326 -0.4913
vn -0.4918 -0.7715 -0.4036
vn -0.6825 0.4696 -0.5601
vn -0.3658 -0.8810 -0.3002
vn -0.7400 0.2890 -0.6073
vn -0.2254 -0.9565 -0.1850
vn -0.7693 0.0975 -0.6314
vn -0.0761 0.9951 -0.0625
vn -0.0761 -0.9951 -0.0625
vn -0.7693 -0.0975 -0.6314
vn -0.5601 0.4696 -0.6825
vn -0.3002 -0.8810 -0.3658
vn -0.6073 0.2890 -0.7400
vn -0.1850 -0.9565 -0.2254
vn -0.6314 0.0975 -0.7693
vn -0.0625 0.9951 -0.0761
vn -0.0625 -0.9951 -0.0761
vn -0.6314 -0.0975 -0.7693
vn -0.1850 0.9565 -0.2254
vn -0.6073 -0.2890 -0.7400
vn -0.3002 0.8810 -0.3658
vn -0.5601 -0.4696 -0.6825
vn -0.4036 0.7715 -0.4918
vn -0.4913 -0.6326 -0.5987
vn -0.4913 0.6326 -0.5987
vn -0.4036 -0.7715 -0.4918
vn -0.4513 -0.2890 -0.8443
vn -0.2230 0.8810 -0.4173
vn -0.4162 -0.4696 -0.7786
vn -0.2999 0.7715 -0.5611
vn -0.3651 -0.6326 -0.6831
vn -0.3651 0.6326 -0.6831
vn -0.2999 -0.7715 -0.5611
vn -0.4162 0.4696 -0.7786
vn -0.2230 -0.8810 -0.4173
vn -0.4513 0.2890 -0.8443
vn -0.1374 -0.9565 -0.2571
vn -0.4691 0.0975 -0.8777
vn -0.0464 0.9951 -0.0869
vn -0.0464 -0.9951 -0.0869
vn -0.4691 -0.0975 -0.8777
vn -0.1374 0.9565 -0.2571
vn -0.1374 -0.8810 -0.4528
vn -0.2779 0.2890 -0.9161
vn -0.0846 -0.9565 -0.2790
vn -0.2889 0.0975 -0.9524
vn -0.0286 0.9951 -0.0942
vn -0.0286 -0.9951 -0.0942
vn -0.2889 -0.0975 -0.9524
vn -0.0846 0.9565 -0.2790
vn -0.2779 -0.2890 -0.9161
vn -0.1374 0.8810 -0.4528
vn -0.2563 -0.4696 -0.8448
vn -0.1847 0.7715 -0.6088
vn -0.2248 -0.6326 -0.7412
vn -0.2248 0.6326 -0.7412
vn -0.1847 -0.7715 -0.6088
vn -0.2563 0.4696 -0.8448
vn -0.0865 -0.4696 -0.8786
vn -0.0624 0.7715 -0.6332
vn -0.0759 -0.6326 -0.7708
vn -0.0759 0.6326 -0.7708
vn -0.0624 -0.7715 -0.6332
vn -0.0865 0.4696 -0.8786
vn -0.0464 -0.8810 -0.4709
vn -0.0938 0.2890 -0.9527
vn -0.0286 -0.9565 -0.2902
vn -0.0976 0.0975 -0.9904
vn -0.0097 0.9951 -0.0980
vn -0.0097 -0.9951 -0.0980
vn -0.0976 -0.0975 -0.9904
vn -0.0286 0.9565 -0.2902
vn -0.0938 -0.2890 -0.9527
vn -0.0464 0.8810 -0.4709
vn 0.0975 0.0976 -0.9904
vn 0.0975 -0.0975 -0.9904
vn 0.2231 -0.8810 -0.4173
vn 0.2230 0.8810 -0.4173
vn 0.2254 -0.9565 -0.1850
vn 0.4173 0.8810 0.2230
vn 0.4173 -0.8810 0.2231
vn 0.2231 -0.8810 0.4173
vn -0.0975 0.0975 0.9904
vn -0.0976 -0.0975 0.9904
vn -0.2231 0.8810 0.4173
vn -0.2231 -0.8810 0.4173
vn -0.2254 -0.9565 0.1850
vn -0.4173 -0.8810 0.2230
vn -0.9904 -0.0975 0.0975
vn -0.9904 0.0975 0.0976
vn -0.9904 0.0975 -0.0976
vn -0.9904 -0.0975 -0.0975
vt 0.750000 0.812500
vt 0.718750 0.875000
vt 0.718750 0.812500
vt 0.750000 0.375000
vt 0.718750 0.312500
vt 0.750000 0.312500
vt 0.750000 0.750000
vt 0.718750 0.750000
vt 0.718750 0.250000
vt 0.750000 0.250000
vt 0.750000 0.687500
vt 0.718750 0.687500
vt 0.718750 0.187500
vt 0.750000 0.187500
vt 0.750000 0.625000
vt 0.718750 0.625000
vt 0.718750 0.125000
vt 0.750000 0.125000
vt 0.750000 0.562500
vt 0.718750 0.562500
vt 0.718750 0.062500
vt 0.750000 0.062500
vt 0.718750 0.500000
vt 0.750000 0.500000
vt 0.750000 0.937500
vt 0.734375 1.000000
vt 0.718750 0.937500
vt 0.734375 0.000000
vt 0.718750 0.437500
vt 0.750000 0.437500
vt 0.750000 0.875000
vt 0.718750 0.375000
vt 0.687500 0.437500
vt 0.687500 0.875000
vt 0.687500 0.375000
vt 0.687500 0.812500
vt 0.687500 0.312500
vt 0.687500 0.750000
vt 0.687500 0.250000
vt 0.687500 0.687500
vt 0.687500 0.187500
vt 0.687500 0.625000
vt 0.687500 0.125000
vt 0.687500 0.562500
vt 0.687500 0.062500
vt 0.687500 0.500000
vt 0.703125 1.000000
vt 0.687500 0.937500
vt 0.703125 0.000000
vt 0.656250 0.250000
vt 0.656250 0.187500
vt 0.656250 0.625000
vt 0.656250 0.125000
vt 0.656250 0.562500
vt 0.656250 0.062500
vt 0.656250 0.500000
vt 0.671875 1.000000
vt 0.656250 0.937500
vt 0.671875 0.000000
vt 0.656250 0.437500
vt 0.656250 0.875000
vt 0.656250 0.375000
vt 0.656250 0.812500
vt 0.656250 0.312500
vt 0.656250 0.750000
vt 0.656250 0.687500
vt 0.625000 0.375000
vt 0.625000 0.812500
vt 0.625000 0.312500
vt 0.625000 0.750000
vt 0.625000 0.250000
vt 0.625000 0.687500
vt 0.625000 0.187500
vt 0.625000 0.625000
vt 0.625000 0.125000
vt 0.625000 0.562500
vt 0.625000 0.062500
vt 0.625000 0.500000
vt 0.640625 1.000000
vt 0.625000 0.937500
vt 0.640625 0.000000
vt 0.625000 0.437500
vt 0.625000 0.875000
vt 0.593750 0.187500
vt 0.593750 0.125000
vt 0.593750 0.625000
vt 0.593750 0.562500
vt 0.593750 0.062500
vt 0.593750 0.500000
vt 0.609375 1.000000
vt 0.593750 0.937500
vt 0.609375 0.000000
vt 0.593750 0.437500
vt 0.593750 0.875000
vt 0.593750 0.375000
vt 0.593750 0.812500
vt 0.593750 0.312500
vt 0.593750 0.750000
vt 0.593750 0.250000
vt 0.593750 0.687500
vt 0.562500 0.812500
vt 0.562500 0.375000
vt 0.562500 0.312500
vt 0.562500 0.750000
vt 0.562500 0.250000
vt 0.562500 0.687500
vt 0.562500 0.187500
vt 0.562500 0.625000
vt 0.562500 0.125000
vt 0.562500 0.562500
vt 0.562500 0.062500
vt 0.562500 0.500000
vt 0.578125 1.000000
vt 0.562500 0.937500
vt 0.578125 0.000000
vt 0.562500 0.437500
vt 0.562500 0.875000
vt 0.531250 0.625000
vt 0.531250 0.562500
vt 0.531250 0.062500
vt 0.531250 0.500000
vt 0.546875 1.000000
vt 0.531250 0.937500
vt 0.546875 0.000000
vt 0.531250 0.437500
vt 0.531250 0.875000
vt 0.531250 0.375000
vt 0.531250 0.812500
vt 0.531250 0.312500
vt 0.531250 0.750000
vt 0.531250 0.250000
vt 0.531250 0.687500
vt 0.531250 0.187500
vt 0.531250 0.125000
vt 0.500000 0.375000
vt 0.500000 0.312500
vt 0.500000 0.750000
vt 0.500000 0.250000
vt 0.500000 0.687500
vt 0.500000 0.187500
vt 0.500000 0.625000
vt 0.500000 0.125000
vt 0.500000 0.562500
vt 0.500000 0.062500
vt 0.500000 0.500000
vt 0.515625 1.000000
vt 0.500000 0.937500
vt 0.515625 0.000000
vt 0.500000 0.437500
vt 0.500000 0.875000
vt 0.500000 0.812500
vt 0.468750 0.062500
vt 0.468750 0.562500
vt 0.468750 0.500000
vt 0.484375 1.000000
vt 0.468750 0.937500
vt 0.484375 0.000000
vt 0.468750 0.437500
vt 0.468750 0.875000
vt 0.468750 0.375000
vt 0.468750 0.812500
vt 0.468750 0.312500
vt 0.468750 0.750000
vt 0.468750 0.250000
vt 0.468750 0.687500
vt 0.468750 0.187500
vt 0.468750 0.625000
vt 0.468750 0.125000
vt 0.437500 0.750000
vt 0.437500 0.250000
vt 0.437500 0.687500
vt 0.437500 0.187500
vt 0.437500 0.625000
vt 0.437500 0.125000
vt 0.437500 0.562500
vt 0.437500 0.062500
vt 0.437500 0.500000
vt 0.453125 1.000000
vt 0.437500 0.937500
vt 0.453125 0.000000
vt 0.437500 0.437500
vt 0.437500 0.875000
vt 0.437500 0.375000
vt 0.437500 0.812500
vt 0.437500 0.312500
vt 0.406250 0.562500
vt 0.406250 0.500000
vt 0.421875 1.000000
vt 0.406250 0.937500
vt 0.421875 0.000000
vt 0.406250 0.062500
vt 0.406250 0.437500
vt 0.406250 0.875000
vt 0.406250 0.375000
vt 0.406250 0.812500
vt 0.406250 0.312500
vt 0.406250 0.750000
vt 0.406250 0.250000
vt 0.406250 0.687500
vt 0.406250 0.187500
vt 0.406250 0.625000
vt 0.406250 0.125000
vt 0.375000 0.250000
vt 0.375000 0.750000
vt 0.375000 0.687500
vt 0.375000 0.187500
vt 0.375000 0.625000
vt 0.375000 0.125000
vt 0.375000 0.562500
vt 0.375000 0.062500
vt 0.375000 0.500000
vt 0.390625 1.000000
vt 0.375000 0.937500
vt 0.390625 0.000000
vt 0.375000 0.437500
vt 0.375000 0.875000
vt 0.375000 0.375000
vt 0.375000 0.812500
vt 0.375000 0.312500
vt 0.359375 0.000000
vt 0.343750 0.062500
vt 0.343750 0.437500
vt 0.343750 0.937500
vt 0.343750 0.875000
vt 0.343750 0.375000
vt 0.343750 0.812500
vt 0.343750 0.312500
vt 0.343750 0.750000
vt 0.343750 0.250000
vt 0.343750 0.687500
vt 0.343750 0.187500
vt 0.343750 0.625000
vt 0.343750 0.125000
vt 0.343750 0.562500
vt 0.343750 0.500000
vt 0.359375 1.000000
vt 0.312500 0.250000
vt 0.312500 0.187500
vt 0.312500 0.625000
vt 0.312500 0.125000
vt 0.312500 0.562500
vt 0.312500 0.062500
vt 0.312500 0.500000
vt 0.328125 1.000000
vt 0.312500 0.937500
vt 0.328125 0.000000
vt 0.312500 0.437500
vt 0.312500 0.875000
vt 0.312500 0.375000
vt 0.312500 0.812500
vt 0.312500 0.312500
vt 0.312500 0.750000
vt 0.312500 0.687500
vt 0.281250 0.875000
vt 0.281250 0.375000
vt 0.281250 0.812500
vt 0.281250 0.312500
vt 0.281250 0.750000
vt 0.281250 0.250000
vt 0.281250 0.687500
vt 0.281250 0.187500
vt 0.281250 0.625000
vt 0.281250 0.125000
vt 0.281250 0.562500
vt 0.281250 0.062500
vt 0.281250 0.500000
vt 0.296875 1.000000
vt 0.281250 0.937500
vt 0.296875 0.000000
vt 0.281250 0.437500
vt 0.250000 0.625000
vt 0.250000 0.125000
vt 0.250000 0.562500
vt 0.250000 0.062500
vt 0.250000 0.500000
vt 0.265625 1.000000
vt 0.250000 0.937500
vt 0.265625 0.000000
vt 0.250000 0.437500
vt 0.250000 0.875000
vt 0.250000 0.375000
vt 0.250000 0.812500
vt 0.250000 0.312500
vt 0.250000 0.750000
vt 0.250000 0.250000
vt 0.250000 0.687500
vt 0.250000 0.187500
vt 0.218750 0.375000
vt 0.218750 0.812500
vt 0.218750 0.312500
vt 0.218750 0.750000
vt 0.218750 0.250000
vt 0.218750 0.687500
vt 0.218750 0.187500
vt 0.218750 0.625000
vt 0.218750 0.125000
vt 0.218750 0.562500
vt 0.218750 0.062500
vt 0.218750 0.500000
vt 0.234375 1.000000
vt 0.218750 0.937500
vt 0.234375 0.000000
vt 0.218750 0.437500
vt 0.218750 0.875000
vt 0.187500 0.125000
vt 0.187500 0.625000
vt 0.187500 0.562500
vt 0.187500 0.062500
vt 0.187500 0.500000
vt 0.203125 1.000000
vt 0.187500 0.937500
vt 0.203125 0.000000
vt 0.187500 0.437500
vt 0.187500 0.875000
vt 0.187500 0.375000
vt 0.187500 0.812500
vt 0.187500 0.312500
vt 0.187500 0.750000
vt 0.187500 0.250000
vt 0.187500 0.687500
vt 0.187500 0.187500
vt 0.156250 0.812500
vt 0.156250 0.375000
vt 0.156250 0.312500
vt 0.156250 0.750000
vt 0.156250 0.250000
vt 0.156250 0.687500
vt 0.156250 0.187500
vt 0.156250 0.625000
vt 0.156250 0.125000
vt 0.156250 0.562500
vt 0.156250 0.062500
vt 0.156250 0.500000
vt 0.171875 1.000000
vt 0.156250 0.937500
vt 0.171875 0.000000
vt 0.156250 0.437500
vt 0.156250 0.875000
vt 0.125000 0.625000
vt 0.125000 0.562500
vt 0.125000 0.125000
vt 0.125000 0.062500
vt 0.125000 0.500000
vt 0.140625 1.000000
vt 0.125000 0.937500
vt 0.140625 0.000000
vt 0.125000 0.437500
vt 0.125000 0.875000
vt 0.125000 0.375000
vt 0.125000 0.812500
vt 0.125000 0.312500
vt 0.125000 0.750000
vt 0.125000 0.250000
vt 0.125000 0.687500
vt 0.125000 0.187500
vt 0.093750 0.375000
vt 0.093750 0.312500
vt 0.093750 0.750000
vt 0.093750 0.250000
vt 0.093750 0.687500
vt 0.093750 0.187500
vt 0.093750 0.625000
vt 0.093750 0.125000
vt 0.093750 0.562500
vt 0.093750 0.062500
vt 0.093750 0.500000
vt 0.109375 1.000000
vt 0.093750 0.937500
vt 0.109375 0.000000
vt 0.093750 0.437500
vt 0.093750 0.875000
vt 0.093750 0.812500
vt 0.062500 0.062500
vt 0.062500 0.562500
vt 0.062500 0.500000
vt 0.078125 1.000000
vt 0.062500 0.937500
vt 0.078125 0.000000
vt 0.062500 0.437500
vt 0.062500 0.875000
vt 0.062500 0.375000
vt 0.062500 0.812500
vt 0.062500 0.312500
vt 0.062500 0.750000
vt 0.062500 0.250000
vt 0.062500 0.687500
vt 0.062500 0.187500
vt 0.062500 0.625000
vt 0.062500 0.125000
vt 0.031250 0.250000
vt 0.031250 0.750000
vt 0.031250 0.687500
vt 0.031250 0.187500
vt 0.031250 0.625000
vt 0.031250 0.125000
vt 0.031250 0.562500
vt 0.031250 0.062500
vt 0.031250 0.500000
vt 0.046875 1.000000
vt 0.031250 0.937500
vt 0.046875 0.000000
vt 0.031250 0.437500
vt 0.031250 0.875000
vt 0.031250 0.375000
vt 0.031250 0.812500
vt 0.031250 0.312500
vt 0.015625 1.000000
vt 0.000000 0.937500
vt 0.015625 0.000000
vt 0.000000 0.062500
vt 0.000000 0.437500
vt 0.000000 0.875000
vt 0.000000 0.375000
vt 0.000000 0.812500
vt 0.000000 0.312500
vt 0.000000 0.750000
vt 0.000000 0.250000
vt 0.000000 0.687500
vt 0.000000 0.187500
vt 0.000000 0.625000
vt 0.000000 0.125000
vt 0.000000 0.562500
vt 0.000000 0.500000
vt 1.000000 0.687500
vt 0.968750 0.750000
vt 0.968750 0.687500
vt 1.000000 0.187500
vt 0.968750 0.250000
vt 0.968750 0.187500
vt 0.968750 0.625000
vt 1.000000 0.625000
vt 0.968750 0.125000
vt 1.000000 0.125000
vt 1.000000 0.562500
vt 0.968750 0.562500
vt 0.968750 0.062500
vt 1.000000 0.062500
vt 1.000000 0.500000
vt 0.968750 0.500000
vt 1.000000 0.937500
vt 0.984375 1.000000
vt 0.968750 0.937500
vt 0.984375 0.000000
vt 0.968750 0.437500
vt 1.000000 0.437500
vt 0.968750 0.875000
vt 1.000000 0.875000
vt 0.968750 0.375000
vt 1.000000 0.375000
vt 1.000000 0.812500
vt 0.968750 0.812500
vt 1.000000 0.312500
vt 0.968750 0.312500
vt 1.000000 0.750000
vt 1.000000 0.250000
vt 0.937500 0.437500
vt 0.937500 0.875000
vt 0.937500 0.375000
vt 0.937500 0.812500
vt 0.937500 0.312500
vt 0.937500 0.750000
vt 0.937500 0.250000
vt 0.937500 0.687500
vt 0.937500 0.187500
vt 0.937500 0.625000
vt 0.937500 0.125000
vt 0.937500 0.562500
vt 0.937500 0.062500
vt 0.937500 0.500000
vt 0.953125 1.000000
vt 0.937500 0.937500
vt 0.953125 0.000000
vt 0.906250 0.250000
vt 0.906250 0.187500
vt 0.906250 0.625000
vt 0.906250 0.125000
vt 0.906250 0.562500
vt 0.906250 0.062500
vt 0.906250 0.500000
vt 0.921875 1.000000
vt 0.906250 0.937500
vt 0.921875 0.000000
vt 0.906250 0.437500
vt 0.906250 0.875000
vt 0.906250 0.375000
vt 0.906250 0.812500
vt 0.906250 0.312500
vt 0.906250 0.750000
vt 0.906250 0.687500
vt 0.875000 0.875000
vt 0.875000 0.375000
vt 0.875000 0.812500
vt 0.875000 0.312500
vt 0.875000 0.750000
vt 0.875000 0.250000
vt 0.875000 0.687500
vt 0.875000 0.187500
vt 0.875000 0.625000
vt 0.875000 0.125000
vt 0.875000 0.562500
vt 0.875000 0.062500
vt 0.875000 0.500000
vt 0.890625 1.000000
vt 0.875000 0.937500
vt 0.890625 0.000000
vt 0.875000 0.437500
vt 0.843750 0.625000
vt 0.843750 0.125000
vt 0.843750 0.562500
vt 0.843750 0.062500
vt 0.843750 0.500000
vt 0.859375 1.000000
vt 0.843750 0.937500
vt 0.859375 0.000000
vt 0.843750 0.437500
vt 0.843750 0.875000
vt 0.843750 0.375000
vt 0.843750 0.812500
vt 0.843750 0.312500
vt 0.843750 0.750000
vt 0.843750 0.250000
vt 0.843750 0.687500
vt 0.843750 0.187500
vt 0.812500 0.375000
vt 0.812500 0.812500
vt 0.812500 0.312500
vt 0.812500 0.750000
vt 0.812500 0.250000
vt 0.812500 0.687500
vt 0.812500 0.187500
vt 0.812500 0.625000
vt 0.812500 0.125000
vt 0.812500 0.562500
vt 0.812500 0.062500
vt 0.812500 0.500000
vt 0.828125 1.000000
vt 0.812500 0.937500
vt 0.828125 0.000000
vt 0.812500 0.437500
vt 0.812500 0.875000
vt 0.781250 0.125000
vt 0.781250 0.625000
vt 0.781250 0.562500
vt 0.781250 0.062500
vt 0.781250 0.500000
vt 0.796875 1.000000
vt 0.781250 0.937500
vt 0.796875 0.000000
vt 0.781250 0.437500
vt 0.781250 0.875000
vt 0.781250 0.375000
vt 0.781250 0.812500
vt 0.781250 0.312500
vt 0.781250 0.750000
vt 0.781250 0.250000
vt 0.781250 0.687500
vt 0.781250 0.187500
vt 0.765625 1.000000
vt 0.765625 0.000000
s 0
f 2/1/1 10/2/1 11/3/1
f 478/4/2 19/5/2 7/6/2
f 476/7/3 11/3/3 12/8/3
f 7/6/4 20/9/4 479/10/4
f 3/11/5 12/8/5 13/12/5
f 479/10/6 21/13/6 480/14/6
f 477/15/7 13/12/7 14/16/7
f 480/14/8 22/17/8 481/18/8
f 4/19/9 14/16/9 15/20/9
f 481/18/10 23/21/10 482/22/10
f 4/19/11 16/23/11 5/24/11
f 474/25/12 1/26/12 9/27/12
f 8/28/13 482/22/13 23/21/13
f 5/24/14 17/29/14 6/30/14
f 475/31/15 9/27/15 10/2/15
f 6/30/16 18/32/16 478/4/16
f 16/23/17 32/33/17 17/29/17
f 9/27/18 25/34/18 10/2/18
f 17/29/19 33/35/19 18/32/19
f 10/2/20 26/36/20 11/3/20
f 18/32/21 34/37/21 19/5/21
f 11/3/22 27/38/22 12/8/22
f 19/5/23 35/39/23 20/9/23
f 12/8/24 28/40/24 13/12/24
f 21/13/25 35/39/25 36/41/25
f 13/12/26 29/42/26 14/16/26
f 22/17/27 36/41/27 37/43/27
f 15/20/28 29/42/28 30/44/28
f 22/17/29 38/45/29 23/21/29
f 15/20/30 31/46/30 16/23/30
f 9/27/31 1/47/31 24/48/31
f 8/49/32 23/21/32 38/45/32
f 36/41/33 50/50/33 51/51/33
f 28/40/34 44/52/34 29/42/34
f 36/41/35 52/53/35 37/43/35
f 29/42/36 45/54/36 30/44/36
f 37/43/37 53/55/37 38/45/37
f 30/44/38 46/56/38 31/46/38
f 24/48/39 1/57/39 39/58/39
f 8/59/40 38/45/40 53/55/40
f 32/33/41 46/56/41 47/60/41
f 24/48/42 40/61/42 25/34/42
f 32/33/43 48/62/43 33/35/43
f 25/34/44 41/63/44 26/36/44
f 34/37/45 48/62/45 49/64/45
f 26/36/46 42/65/46 27/38/46
f 35/39/47 49/64/47 50/50/47
f 27/38/48 43/66/48 28/40/48
f 47/60/49 63/67/49 48/62/49
f 40/61/50 56/68/50 41/63/50
f 49/64/51 63/67/51 64/69/51
f 41/63/52 57/70/52 42/65/52
f 49/64/53 65/71/53 50/50/53
f 42/65/54 58/72/54 43/66/54
f 50/50/55 66/73/55 51/51/55
f 43/66/56 59/74/56 44/52/56
f 51/51/57 67/75/57 52/53/57
f 45/54/58 59/74/58 60/76/58
f 52/53/59 68/77/59 53/55/59
f 46/56/60 60/76/60 61/78/60
f 39/58/61 1/79/61 54/80/61
f 8/81/62 53/55/62 68/77/62
f 46/56/63 62/82/63 47/60/63
f 39/58/64 55/83/64 40/61/64
f 67/75/65 81/84/65 82/85/65
f 60/76/66 74/86/66 75/87/66
f 67/75/67 83/88/67 68/77/67
f 61/78/68 75/87/68 76/89/68
f 54/80/69 1/90/69 69/91/69
f 8/92/70 68/77/70 83/88/70
f 61/78/71 77/93/71 62/82/71
f 54/80/72 70/94/72 55/83/72
f 62/82/73 78/95/73 63/67/73
f 55/83/74 71/96/74 56/68/74
f 64/69/75 78/95/75 79/97/75
f 56/68/76 72/98/76 57/70/76
f 64/69/77 80/99/77 65/71/77
f 58/72/78 72/98/78 73/100/78
f 65/71/79 81/84/79 66/73/79
f 58/72/80 74/86/80 59/74/80
f 70/94/81 86/101/81 71/96/81
f 79/97/82 93/102/82 94/103/82
f 71/96/83 87/104/83 72/98/83
f 79/97/84 95/105/84 80/99/84
f 73/100/85 87/104/85 88/106/85
f 80/99/86 96/107/86 81/84/86
f 73/100/87 89/108/87 74/86/87
f 81/84/88 97/109/88 82/85/88
f 75/87/89 89/108/89 90/110/89
f 83/88/90 97/109/90 98/111/90
f 76/89/91 90/110/91 91/112/91
f 69/91/92 1/113/92 84/114/92
f 8/115/93 83/88/93 98/111/93
f 76/89/94 92/116/94 77/93/94
f 69/91/95 85/117/95 70/94/95
f 77/93/96 93/102/96 78/95/96
f 90/110/97 104/118/97 105/119/97
f 97/109/98 113/120/98 98/111/98
f 91/112/99 105/119/99 106/121/99
f 84/114/100 1/122/100 99/123/100
f 8/124/101 98/111/101 113/120/101
f 91/112/102 107/125/102 92/116/102
f 85/117/103 99/123/103 100/126/103
f 92/116/104 108/127/104 93/102/104
f 85/117/105 101/128/105 86/101/105
f 94/103/106 108/127/106 109/129/106
f 86/101/107 102/130/107 87/104/107
f 94/103/108 110/131/108 95/105/108
f 88/106/109 102/130/109 103/132/109
f 96/107/110 110/131/110 111/133/110
f 88/106/111 104/118/111 89/108/111
f 97/109/112 111/133/112 112/134/112
f 109/129/113 123/135/113 124/136/113
f 101/128/114 117/137/114 102/130/114
f 109/129/115 125/138/115 110/131/115
f 103/132/116 117/137/116 118/139/116
f 111/133/117 125/138/117 126/140/117
f 103/132/118 119/141/118 104/118/118
f 111/133/119 127/142/119 112/134/119
f 105/119/120 119/141/120 120/143/120
f 112/134/121 128/144/121 113/120/121
f 106/121/122 120/143/122 121/145/122
f 99/123/123 1/146/123 114/147/123
f 8/148/124 113/120/124 128/144/124
f 106/121/125 122/149/125 107/125/125
f 100/126/126 114/147/126 115/150/126
f 107/125/127 123/135/127 108/127/127
f 100/126/128 116/151/128 101/128/128
f 127/142/129 143/152/129 128/144/129
f 121/145/130 135/153/130 136/154/130
f 114/147/131 1/155/131 129/156/131
f 8/157/132 128/144/132 143/152/132
f 121/145/133 137/158/133 122/149/133
f 114/147/134 130/159/134 115/150/134
f 122/149/135 138/160/135 123/135/135
f 115/150/136 131/161/136 116/151/136
f 124/136/137 138/160/137 139/162/137
f 116/151/138 132/163/138 117/137/138
f 124/136/139 140/164/139 125/138/139
f 118/139/140 132/163/140 133/165/140
f 126/140/141 140/164/141 141/166/141
f 118/139/142 134/167/142 119/141/142
f 126/140/143 142/168/143 127/142/143
f 120/143/144 134/167/144 135/153/144
f 131/161/145 147/169/145 132/163/145
f 139/162/146 155/170/146 140/164/146
f 133/165/147 147/169/147 148/171/147
f 141/166/148 155/170/148 156/172/148
f 133/165/149 149/173/149 134/167/149
f 141/166/150 157/174/150 142/168/150
f 135/153/151 149/173/151 150/175/151
f 143/152/152 157/174/152 158/176/152
f 136/154/153 150/175/153 151/177/153
f 129/156/154 1/178/154 144/179/154
f 8/180/155 143/152/155 158/176/155
f 136/154/156 152/181/156 137/158/156
f 129/156/157 145/182/157 130/159/157
f 137/158/158 153/183/158 138/160/158
f 131/161/159 145/182/159 146/184/159
f 139/162/160 153/183/160 154/185/160
f 151/177/161 165/186/161 166/187/161
f 144/179/162 1/188/162 159/189/162
f 8/190/163 158/176/163 173/191/163
f 151/177/164 167/192/164 152/181/164
f 144/179/165 160/193/165 145/182/165
f 152/181/166 168/194/166 153/183/166
f 146/184/167 160/193/167 161/195/167
f 154/185/168 168/194/168 169/196/168
f 146/184/169 162/197/169 147/169/169
f 154/185/170 170/198/170 155/170/170
f 148/171/171 162/197/171 163/199/171
f 156/172/172 170/198/172 171/200/172
f 148/171/173 164/201/173 149/173/173
f 156/172/174 172/202/174 157/174/174
f 150/175/175 164/201/175 165/186/175
f 157/174/176 173/191/176 158/176/176
f 169/196/177 185/203/177 170/198/177
f 163/199/178 177/204/178 178/205/178
f 170/198/179 186/206/179 171/200/179
f 163/199/180 179/207/180 164/201/180
f 172/202/181 186/206/181 187/208/181
f 165/186/182 179/207/182 180/209/182
f 173/191/183 187/208/183 188/210/183
f 166/187/184 180/209/184 181/211/184
f 159/189/185 1/212/185 174/213/185
f 8/214/186 173/191/186 188/210/186
f 166/187/187 182/215/187 167/192/187
f 159/189/188 175/216/188 160/193/188
f 167/192/189 183/217/189 168/194/189
f 160/193/190 176/218/190 161/195/190
f 169/196/191 183/217/191 184/219/191
f 161/195/192 177/204/192 162/197/192
f 8/220/193 188/210/193 203/221/193
f 181/211/194 197/222/194 182/215/194
f 175/216/195 189/223/195 190/224/195
f 182/215/196 198/225/196 183/217/196
f 176/218/197 190/224/197 191/226/197
f 184/219/198 198/225/198 199/227/198
f 176/218/199 192/228/199 177/204/199
f 184/219/200 200/229/200 185/203/200
f 178/205/201 192/228/201 193/230/201
f 186/206/202 200/229/202 201/231/202
f 178/205/203 194/232/203 179/207/203
f 186/206/204 202/233/204 187/208/204
f 180/209/205 194/232/205 195/234/205
f 187/208/206 203/221/206 188/210/206
f 181/211/207 195/234/207 196/235/207
f 174/213/208 1/236/208 189/223/208
f 201/231/209 215/237/209 216/238/209
f 193/230/210 209/239/210 194/232/210
f 201/231/211 217/240/211 202/233/211
f 195/234/212 209/239/212 210/241/212
f 202/233/213 218/242/213 203/221/213
f 196/235/214 210/241/214 211/243/214
f 189/223/215 1/244/215 204/245/215
f 8/246/216 203/221/216 218/242/216
f 196/235/217 212/247/217 197/222/217
f 189/223/218 205/248/218 190/224/218
f 197/222/219 213/249/219 198/225/219
f 190/224/220 206/250/220 191/226/220
f 199/227/221 213/249/221 214/251/221
f 191/226/222 207/252/222 192/228/222
f 199/227/223 215/237/223 200/229/223
f 193/230/224 207/252/224 208/253/224
f 204/245/225 220/254/225 205/248/225
f 212/247/226 228/255/226 213/249/226
f 205/248/227 221/256/227 206/250/227
f 214/251/228 228/255/228 229/257/228
f 206/250/229 222/258/229 207/252/229
f 214/251/230 230/259/230 215/237/230
f 208/253/231 222/258/231 223/260/231
f 216/238/232 230/259/232 231/261/232
f 208/253/233 224/262/233 209/239/233
f 216/238/234 232/263/234 217/240/234
f 210/241/235 224/262/235 225/264/235
f 217/240/236 233/265/236 218/242/236
f 211/243/237 225/264/237 226/266/237
f 204/245/238 1/267/238 219/268/238
f 8/269/239 218/242/239 233/265/239
f 211/243/240 227/270/240 212/247/240
f 223/260/241 239/271/241 224/262/241
f 231/261/242 247/272/242 232/263/242
f 225/264/243 239/271/243 240/273/243
f 233/265/244 247/272/244 248/274/244
f 226/266/245 240/273/245 241/275/245
f 219/268/246 1/276/246 234/277/246
f 8/278/247 233/265/247 248/274/247
f 226/266/248 242/279/248 227/270/248
f 219/268/249 235/280/249 220/254/249
f 227/270/250 243/281/250 228/255/250
f 221/256/251 235/280/251 236/282/251
f 229/257/252 243/281/252 244/283/252
f 221/256/253 237/284/253 222/258/253
f 229/257/254 245/285/254 230/259/254
f 223/260/255 237/284/255 238/286/255
f 231/261/256 245/285/256 246/287/256
f 242/279/257 258/288/257 243/281/257
f 235/280/258 251/289/258 236/282/258
f 244/283/259 258/288/259 259/290/259
f 236/282/260 252/291/260 237/284/260
f 244/283/261 260/292/261 245/285/261
f 238/286/262 252/291/262 253/293/262
f 246/287/263 260/292/263 261/294/263
f 238/286/264 254/295/264 239/271/264
f 246/287/265 262/296/265 247/272/265
f 240/273/266 254/295/266 255/297/266
f 247/272/267 263/298/267 248/274/267
f 241/275/268 255/297/268 256/299/268
f 234/277/269 1/300/269 249/301/269
f 8/302/270 248/274/270 263/298/270
f 241/275/271 257/303/271 242/279/271
f 234/277/272 250/304/272 235/280/272
f 261/294/273 277/305/273 262/296/273
f 255/297/274 269/306/274 270/307/274
f 262/296/275 278/308/275 263/298/275
f 256/299/276 270/307/276 271/309/276
f 249/301/277 1/310/277 264/311/277
f 8/312/278 263/298/278 278/308/278
f 256/299/279 272/313/279 257/303/279
f 250/304/280 264/311/280 265/314/280
f 257/303/281 273/315/281 258/288/281
f 250/304/282 266/316/282 251/289/282
f 259/290/283 273/315/283 274/317/283
f 251/289/284 267/318/284 252/291/284
f 259/290/285 275/319/285 260/292/285
f 253/293/286 267/318/286 268/320/286
f 261/294/287 275/319/287 276/321/287
f 253/293/288 269/306/288 254/295/288
f 265/314/289 281/322/289 266/316/289
f 274/317/290 288/323/290 289/324/290
f 266/316/291 282/325/291 267/318/291
f 274/317/292 290/326/292 275/319/292
f 268/320/293 282/325/293 283/327/293
f 276/321/294 290/326/294 291/328/294
f 268/320/295 284/329/295 269/306/295
f 276/321/296 292/330/296 277/305/296
f 270/307/297 284/329/297 285/331/297
f 278/308/298 292/330/298 293/332/298
f 271/309/299 285/331/299 286/333/299
f 264/311/300 1/334/300 279/335/300
f 8/336/301 278/308/301 293/332/301
f 271/309/302 287/337/302 272/313/302
f 265/314/303 279/335/303 280/338/303
f 272/313/304 288/323/304 273/315/304
f 285/331/305 299/339/305 300/340/305
f 293/332/306 307/341/306 308/342/306
f 286/333/307 300/340/307 301/343/307
f 279/335/308 1/344/308 294/345/308
f 8/346/309 293/332/309 308/342/309
f 286/333/310 302/347/310 287/337/310
f 279/335/311 295/348/311 280/338/311
f 287/337/312 303/349/312 288/323/312
f 280/338/313 296/350/313 281/322/313
f 289/324/314 303/349/314 304/351/314
f 281/322/315 297/352/315 282/325/315
f 289/324/316 305/353/316 290/326/316
f 283/327/317 297/352/317 298/354/317
f 291/328/318 305/353/318 306/355/318
f 283/327/319 299/339/319 284/329/319
f 291/328/320 307/341/320 292/330/320
f 304/351/321 318/356/321 319/357/321
f 296/350/322 312/358/322 297/352/322
f 304/351/323 320/359/323 305/353/323
f 298/354/324 312/358/324 313/360/324
f 306/355/325 320/359/325 321/361/325
f 298/354/326 314/362/326 299/339/326
f 306/355/327 322/363/327 307/341/327
f 300/340/328 314/362/328 315/364/328
f 307/341/329 323/365/329 308/342/329
f 301/343/330 315/364/330 316/366/330
f 294/345/331 1/367/331 309/368/331
f 8/369/332 308/342/332 323/365/332
f 301/343/333 317/370/333 302/347/333
f 294/345/334 310/371/334 295/348/334
f 302/347/335 318/356/335 303/349/335
f 295/348/336 311/372/336 296/350/336
f 322/363/337 338/373/337 323/365/337
f 316/366/338 330/374/338 331/375/338
f 309/368/339 1/376/339 324/377/339
f 8/378/340 323/365/340 338/373/340
f 316/366/341 332/379/341 317/370/341
f 309/368/342 325/380/342 310/371/342
f 317/370/343 333/381/343 318/356/343
f 310/371/344 326/382/344 311/372/344
f 319/357/345 333/381/345 334/383/345
f 311/372/346 327/384/346 312/358/346
f 319/357/347 335/385/347 320/359/347
f 312/358/348 328/386/348 313/360/348
f 321/361/349 335/385/349 336/387/349
f 313/360/350 329/388/350 314/362/350
f 321/361/351 337/389/351 322/363/351
f 315/364/352 329/388/352 330/374/352
f 334/383/353 350/390/353 335/385/353
f 328/386/354 342/391/354 343/392/354
f 336/387/355 350/390/355 351/393/355
f 328/386/356 344/394/356 329/388/356
f 336/387/357 352/395/357 337/389/357
f 330/374/358 344/394/358 345/396/358
f 337/389/359 353/397/359 338/373/359
f 331/375/360 345/396/360 346/398/360
f 324/377/361 1/399/361 339/400/361
f 8/401/362 338/373/362 353/397/362
f 331/375/363 347/402/363 332/379/363
f 324/377/364 340/403/364 325/380/364
f 332/379/365 348/404/365 333/381/365
f 325/380/366 341/405/366 326/382/366
f 334/383/367 348/404/367 349/406/367
f 326/382/368 342/391/368 327/384/368
f 339/400/369 1/407/369 354/408/369
f 8/409/370 353/397/370 368/410/370
f 346/398/371 362/411/371 347/402/371
f 339/400/372 355/412/372 340/403/372
f 347/402/373 363/413/373 348/404/373
f 341/405/374 355/412/374 356/414/374
f 349/406/375 363/413/375 364/415/375
f 341/405/376 357/416/376 342/391/376
f 349/406/377 365/417/377 350/390/377
f 343/392/378 357/416/378 358/418/378
f 351/393/379 365/417/379 366/419/379
f 343/392/380 359/420/380 344/394/380
f 351/393/381 367/421/381 352/395/381
f 345/396/382 359/420/382 360/422/382
f 352/395/383 368/410/383 353/397/383
f 346/398/384 360/422/384 361/423/384
f 358/424/385 372/425/385 373/426/385
f 366/427/386 380/428/386 381/429/386
f 358/424/387 374/430/387 359/431/387
f 366/427/388 382/432/388 367/433/388
f 360/434/389 374/430/389 375/435/389
f 367/433/390 383/436/390 368/437/390
f 361/438/391 375/435/391 376/439/391
f 354/440/392 1/441/392 369/442/392
f 8/443/393 368/437/393 383/436/393
f 361/438/394 377/444/394 362/445/394
f 354/440/395 370/446/395 355/447/395
f 362/445/396 378/448/396 363/449/396
f 356/450/397 370/446/397 371/451/397
f 364/452/398 378/448/398 379/453/398
f 356/450/399 372/425/399 357/454/399
f 364/452/400 380/428/400 365/455/400
f 376/439/401 392/456/401 377/444/401
f 369/442/402 385/457/402 370/446/402
f 377/444/403 393/458/403 378/448/403
f 371/451/404 385/457/404 386/459/404
f 379/453/405 393/458/405 394/460/405
f 371/451/406 387/461/406 372/425/406
f 379/453/407 395/462/407 380/428/407
f 373/426/408 387/461/408 388/463/408
f 381/429/409 395/462/409 396/464/409
f 373/426/410 389/465/410 374/430/410
f 381/429/411 397/466/411 382/432/411
f 375/435/412 389/465/412 390/467/412
f 382/432/413 398/468/413 383/436/413
f 376/439/414 390/467/414 391/469/414
f 369/442/415 1/470/415 384/471/415
f 8/472/416 383/436/416 398/468/416
f 396/464/417 410/473/417 411/474/417
f 388/463/418 404/475/418 389/465/418
f 397/466/419 411/474/419 412/476/419
f 390/467/420 404/475/420 405/477/420
f 397/466/421 413/478/421 398/468/421
f 391/469/422 405/477/422 406/479/422
f 384/471/423 1/480/423 399/481/423
f 8/482/424 398/468/424 413/478/424
f 391/469/425 407/483/425 392/456/425
f 385/457/426 399/481/426 400/484/426
f 392/456/427 408/485/427 393/458/427
f 385/457/428 401/486/428 386/459/428
f 394/460/429 408/485/429 409/487/429
f 386/459/430 402/488/430 387/461/430
f 394/460/431 410/473/431 395/462/431
f 388/463/432 402/488/432 403/489/432
f 399/481/433 415/490/433 400/484/433
f 407/483/434 423/491/434 408/485/434
f 401/486/435 415/490/435 416/492/435
f 409/487/436 423/491/436 424/493/436
f 401/486/437 417/494/437 402/488/437
f 409/487/438 425/495/438 410/473/438
f 403/489/439 417/494/439 418/496/439
f 411/474/440 425/495/440 426/497/440
f 403/489/441 419/498/441 404/475/441
f 411/474/442 427/499/442 412/476/442
f 405/477/443 419/498/443 420/500/443
f 412/476/444 428/501/444 413/478/444
f 406/479/445 420/500/445 421/502/445
f 399/481/446 1/503/446 414/504/446
f 8/505/447 413/478/447 428/501/447
f 406/479/448 422/506/448 407/483/448
f 418/496/449 434/507/449 419/498/449
f 426/497/450 442/508/450 427/499/450
f 420/500/451 434/507/451 435/509/451
f 427/499/452 443/510/452 428/501/452
f 421/502/453 435/509/453 436/511/453
f 414/504/454 1/512/454 429/513/454
f 8/514/455 428/501/455 443/510/455
f 421/502/456 437/515/456 422/506/456
f 414/504/457 430/516/457 415/490/457
f 422/506/458 438/517/458 423/491/458
f 416/492/459 430/516/459 431/518/459
f 424/493/460 438/517/460 439/519/460
f 416/492/461 432/520/461 417/494/461
f 424/493/462 440/521/462 425/495/462
f 418/496/463 432/520/463 433/522/463
f 426/497/464 440/521/464 441/523/464
f 437/515/465 453/524/465 438/517/465
f 430/516/466 446/525/466 431/518/466
f 439/519/467 453/524/467 454/526/467
f 431/518/468 447/527/468 432/520/468
f 439/519/469 455/528/469 440/521/469
f 433/522/470 447/527/470 448/529/470
f 441/523/471 455/528/471 456/530/471
f 433/522/472 449/531/472 434/507/472
f 441/523/473 457/532/473 442/508/473
f 435/509/474 449/531/474 450/533/474
f 442/508/475 458/534/475 443/510/475
f 436/511/476 450/533/476 451/535/476
f 429/513/477 1/536/477 444/537/477
f 8/538/478 443/510/478 458/534/478
f 436/511/479 452/539/479 437/515/479
f 430/516/480 444/537/480 445/540/480
f 456/530/481 472/541/481 457/532/481
f 450/533/482 464/542/482 465/543/482
f 458/534/483 472/541/483 473/544/483
f 451/535/484 465/543/484 466/545/484
f 444/537/485 1/546/485 459/547/485
f 8/548/486 458/534/486 473/544/486
f 451/535/487 467/549/487 452/539/487
f 444/537/488 460/550/488 445/540/488
f 452/539/489 468/551/489 453/524/489
f 446/525/490 460/550/490 461/552/490
f 454/526/491 468/551/491 469/553/491
f 446/525/492 462/554/492 447/527/492
f 454/526/493 470/555/493 455/528/493
f 448/529/494 462/554/494 463/556/494
f 456/530/495 470/555/495 471/557/495
f 448/529/496 464/542/496 449/531/496
f 468/551/497 7/6/497 469/553/497
f 462/554/498 2/1/498 476/7/498
f 469/553/499 479/10/499 470/555/499
f 463/556/500 476/7/500 3/11/500
f 471/557/501 479/10/501 480/14/501
f 464/542/502 3/11/502 477/15/502
f 471/557/503 481/18/503 472/541/503
f 465/543/504 477/15/504 4/19/504
f 472/541/505 482/22/505 473/544/505
f 466/545/506 4/19/506 5/24/506
f 459/547/507 1/558/507 474/25/507
f 8/559/508 473/544/508 482/22/508
f 466/545/509 6/30/509 467/549/509
f 460/550/510 474/25/510 475/31/510
f 467/549/511 478/4/511 468/551/511
f 461/552/512 475/31/512 2/1/512
f 2/1/1 475/31/1 10/2/1
f 478/4/2 18/32/2 19/5/2
f 476/7/3 2/1/3 11/3/3
f 7/6/4 19/5/4 20/9/4
f 3/11/5 476/7/5 12/8/5
f 479/10/6 20/9/6 21/13/6
f 477/15/7 3/11/7 13/12/7
f 480/14/8 21/13/8 22/17/8
f 4/19/9 477/15/9 14/16/9
f 481/18/10 22/17/10 23/21/10
f 4/19/513 15/20/513 16/23/513
f 5/24/514 16/23/514 17/29/514
f 475/31/15 474/25/15 9/27/15
f 6/30/16 17/29/16 18/32/16
f 16/23/17 31/46/17 32/33/17
f 9/27/18 24/48/18 25/34/18
f 17/29/19 32/33/19 33/35/19
f 10/2/20 25/34/20 26/36/20
f 18/32/21 33/35/21 34/37/21
f 11/3/22 26/36/22 27/38/22
f 19/5/23 34/37/23 35/39/23
f 12/8/24 27/38/24 28/40/24
f 21/13/25 20/9/25 35/39/25
f 13/12/26 28/40/26 29/42/26
f 22/17/27 21/13/27 36/41/27
f 15/20/28 14/16/28 29/42/28
f 22/17/29 37/43/29 38/45/29
f 15/20/30 30/44/30 31/46/30
f 36/41/33 35/39/33 50/50/33
f 28/40/34 43/66/34 44/52/34
f 36/41/515 51/51/515 52/53/515
f 29/42/36 44/52/36 45/54/36
f 37/43/37 52/53/37 53/55/37
f 30/44/38 45/54/38 46/56/38
f 32/33/41 31/46/41 46/56/41
f 24/48/42 39/58/42 40/61/42
f 32/33/43 47/60/43 48/62/43
f 25/34/516 40/61/516 41/63/516
f 34/37/45 33/35/45 48/62/45
f 26/36/46 41/63/46 42/65/46
f 35/39/47 34/37/47 49/64/47
f 27/38/48 42/65/48 43/66/48
f 47/60/49 62/82/49 63/67/49
f 40/61/50 55/83/50 56/68/50
f 49/64/51 48/62/51 63/67/51
f 41/63/52 56/68/52 57/70/52
f 49/64/53 64/69/53 65/71/53
f 42/65/54 57/70/54 58/72/54
f 50/50/55 65/71/55 66/73/55
f 43/66/56 58/72/56 59/74/56
f 51/51/57 66/73/57 67/75/57
f 45/54/58 44/52/58 59/74/58
f 52/53/59 67/75/59 68/77/59
f 46/56/60 45/54/60 60/76/60
f 46/56/63 61/78/63 62/82/63
f 39/58/64 54/80/64 55/83/64
f 67/75/65 66/73/65 81/84/65
f 60/76/66 59/74/66 74/86/66
f 67/75/517 82/85/517 83/88/517
f 61/78/68 60/76/68 75/87/68
f 61/78/71 76/89/71 77/93/71
f 54/80/72 69/91/72 70/94/72
f 62/82/73 77/93/73 78/95/73
f 55/83/74 70/94/74 71/96/74
f 64/69/75 63/67/75 78/95/75
f 56/68/76 71/96/76 72/98/76
f 64/69/77 79/97/77 80/99/77
f 58/72/78 57/70/78 72/98/78
f 65/71/79 80/99/79 81/84/79
f 58/72/80 73/100/80 74/86/80
f 70/94/81 85/117/81 86/101/81
f 79/97/82 78/95/82 93/102/82
f 71/96/83 86/101/83 87/104/83
f 79/97/84 94/103/84 95/105/84
f 73/100/85 72/98/85 87/104/85
f 80/99/86 95/105/86 96/107/86
f 73/100/87 88/106/87 89/108/87
f 81/84/88 96/107/88 97/109/88
f 75/87/89 74/86/89 89/108/89
f 83/88/90 82/85/90 97/109/90
f 76/89/91 75/87/91 90/110/91
f 76/89/94 91/112/94 92/116/94
f 69/91/95 84/114/95 85/117/95
f 77/93/96 92/116/96 93/102/96
f 90/110/97 89/108/97 104/118/97
f 97/109/98 112/134/98 113/120/98
f 91/112/99 90/110/99 105/119/99
f 91/112/102 106/121/102 107/125/102
f 85/117/103 84/114/103 99/123/103
f 92/116/104 107/125/104 108/127/104
f 85/117/105 100/126/105 101/128/105
f 94/103/106 93/102/106 108/127/106
f 86/101/107 101/128/107 102/130/107
f 94/103/108 109/129/108 110/131/108
f 88/106/109 87/104/109 102/130/109
f 96/107/110 95/105/110 110/131/110
f 88/106/111 103/132/111 104/118/111
f 97/109/112 96/107/112 111/133/112
f 109/129/113 108/127/113 123/135/113
f 101/128/114 116/151/114 117/137/114
f 109/129/115 124/136/115 125/138/115
f 103/132/116 102/130/116 117/137/116
f 111/133/117 110/131/117 125/138/117
f 103/132/118 118/139/118 119/141/118
f 111/133/119 126/140/119 127/142/119
f 105/119/120 104/118/120 119/141/120
f 112/134/121 127/142/121 128/144/121
f 106/121/122 105/119/122 120/143/122
f 106/121/125 121/145/125 122/149/125
f 100/126/126 99/123/126 114/147/126
f 107/125/127 122/149/127 123/135/127
f 100/126/128 115/150/128 116/151/128
f 127/142/129 142/168/129 143/152/129
f 121/145/130 120/143/130 135/153/130
f 121/145/133 136/154/133 137/158/133
f 114/147/134 129/156/134 130/159/134
f 122/149/135 137/158/135 138/160/135
f 115/150/136 130/159/136 131/161/136
f 124/136/137 123/135/137 138/160/137
f 116/151/138 131/161/138 132/163/138
f 124/136/139 139/162/139 140/164/139
f 118/139/140 117/137/140 132/163/140
f 126/140/141 125/138/141 140/164/141
f 118/139/142 133/165/142 134/167/142
f 126/140/143 141/166/143 142/168/143
f 120/143/144 119/141/144 134/167/144
f 131/161/145 146/184/145 147/169/145
f 139/162/146 154/185/146 155/170/146
f 133/165/147 132/163/147 147/169/147
f 141/166/148 140/164/148 155/170/148
f 133/165/149 148/171/149 149/173/149
f 141/166/150 156/172/150 157/174/150
f 135/153/151 134/167/151 149/173/151
f 143/152/152 142/168/152 157/174/152
f 136/154/153 135/153/153 150/175/153
f 136/154/156 151/177/156 152/181/156
f 129/156/157 144/179/157 145/182/157
f 137/158/158 152/181/158 153/183/158
f 131/161/159 130/159/159 145/182/159
f 139/162/160 138/160/160 153/183/160
f 151/177/161 150/175/161 165/186/161
f 151/177/164 166/187/164 167/192/164
f 144/179/165 159/189/165 160/193/165
f 152/181/166 167/192/166 168/194/166
f 146/184/518 145/182/518 160/193/518
f 154/185/168 153/183/168 168/194/168
f 146/184/169 161/195/169 162/197/169
f 154/185/170 169/196/170 170/198/170
f 148/171/171 147/169/171 162/197/171
f 156/172/172 155/170/172 170/198/172
f 148/171/173 163/199/173 164/201/173
f 156/172/519 171/200/519 172/202/519
f 150/175/175 149/173/175 164/201/175
f 157/174/176 172/202/176 173/191/176
f 169/196/177 184/219/177 185/203/177
f 163/199/178 162/197/178 177/204/178
f 170/198/179 185/203/179 186/206/179
f 163/199/180 178/205/180 179/207/180
f 172/202/181 171/200/181 186/206/181
f 165/186/182 164/201/182 179/207/182
f 173/191/183 172/202/183 187/208/183
f 166/187/184 165/186/184 180/209/184
f 166/187/187 181/211/187 182/215/187
f 159/189/188 174/213/188 175/216/188
f 167/192/189 182/215/189 183/217/189
f 160/193/190 175/216/190 176/218/190
f 169/196/191 168/194/191 183/217/191
f 161/195/192 176/218/192 177/204/192
f 181/211/194 196/235/194 197/222/194
f 175/216/195 174/213/195 189/223/195
f 182/215/196 197/222/196 198/225/196
f 176/218/197 175/216/197 190/224/197
f 184/219/198 183/217/198 198/225/198
f 176/218/199 191/226/199 192/228/199
f 184/219/200 199/227/200 200/229/200
f 178/205/201 177/204/201 192/228/201
f 186/206/202 185/203/202 200/229/202
f 178/205/203 193/230/203 194/232/203
f 186/206/204 201/231/204 202/233/204
f 180/209/205 179/207/205 194/232/205
f 187/208/206 202/233/206 203/221/206
f 181/211/207 180/209/207 195/234/207
f 201/231/209 200/229/209 215/237/209
f 193/230/210 208/253/210 209/239/210
f 201/231/520 216/238/520 217/240/520
f 195/234/212 194/232/212 209/239/212
f 202/233/213 217/240/213 218/242/213
f 196/235/214 195/234/214 210/241/214
f 196/235/217 211/243/217 212/247/217
f 189/223/218 204/245/218 205/248/218
f 197/222/219 212/247/219 213/249/219
f 190/224/220 205/248/220 206/250/220
f 199/227/221 198/225/221 213/249/221
f 191/226/222 206/250/222 207/252/222
f 199/227/223 214/251/223 215/237/223
f 193/230/224 192/228/224 207/252/224
f 204/245/225 219/268/225 220/254/225
f 212/247/226 227/270/226 228/255/226
f 205/248/227 220/254/227 221/256/227
f 214/251/228 213/249/228 228/255/228
f 206/250/229 221/256/229 222/258/229
f 214/251/230 229/257/230 230/259/230
f 208/253/231 207/252/231 222/258/231
f 216/238/232 215/237/232 230/259/232
f 208/253/233 223/260/233 224/262/233
f 216/238/234 231/261/234 232/263/234
f 210/241/235 209/239/235 224/262/235
f 217/240/236 232/263/236 233/265/236
f 211/243/237 210/241/237 225/264/237
f 211/243/240 226/266/240 227/270/240
f 223/260/241 238/286/241 239/271/241
f 231/261/242 246/287/242 247/272/242
f 225/264/243 224/262/243 239/271/243
f 233/265/244 232/263/244 247/272/244
f 226/266/245 225/264/245 240/273/245
f 226/266/248 241/275/248 242/279/248
f 219/268/249 234/277/249 235/280/249
f 227/270/250 242/279/250 243/281/250
f 221/256/251 220/254/251 235/280/251
f 229/257/252 228/255/252 243/281/252
f 221/256/253 236/282/253 237/284/253
f 229/257/254 244/283/254 245/285/254
f 223/260/255 222/258/255 237/284/255
f 231/261/256 230/259/256 245/285/256
f 242/279/257 257/303/257 258/288/257
f 235/280/258 250/304/258 251/289/258
f 244/283/259 243/281/259 258/288/259
f 236/282/260 251/289/260 252/291/260
f 244/283/261 259/290/261 260/292/261
f 238/286/262 237/284/262 252/291/262
f 246/287/263 245/285/263 260/292/263
f 238/286/264 253/293/264 254/295/264
f 246/287/265 261/294/265 262/296/265
f 240/273/266 239/271/266 254/295/266
f 247/272/267 262/296/267 263/298/267
f 241/275/521 240/273/521 255/297/521
f 241/275/522 256/299/522 257/303/522
f 234/277/272 249/301/272 250/304/272
f 261/294/273 276/321/273 277/305/273
f 255/297/274 254/295/274 269/306/274
f 262/296/275 277/305/275 278/308/275
f 256/299/276 255/297/276 270/307/276
f 256/299/279 271/309/279 272/313/279
f 250/304/280 249/301/280 264/311/280
f 257/303/281 272/313/281 273/315/281
f 250/304/282 265/314/282 266/316/282
f 259/290/283 258/288/283 273/315/283
f 251/289/284 266/316/284 267/318/284
f 259/290/285 274/317/285 275/319/285
f 253/293/286 252/291/286 267/318/286
f 261/294/287 260/292/287 275/319/287
f 253/293/288 268/320/288 269/306/288
f 265/314/523 280/338/523 281/322/523
f 274/317/290 273/315/290 288/323/290
f 266/316/291 281/322/291 282/325/291
f 274/317/292 289/324/292 290/326/292
f 268/320/293 267/318/293 282/325/293
f 276/321/294 275/319/294 290/326/294
f 268/320/295 283/327/295 284/329/295
f 276/321/524 291/328/524 292/330/524
f 270/307/297 269/306/297 284/329/297
f 278/308/298 277/305/298 292/330/298
f 271/309/299 270/307/299 285/331/299
f 271/309/302 286/333/302 287/337/302
f 265/314/303 264/311/303 279/335/303
f 272/313/304 287/337/304 288/323/304
f 285/331/305 284/329/305 299/339/305
f 293/332/306 292/330/306 307/341/306
f 286/333/307 285/331/307 300/340/307
f 286/333/310 301/343/310 302/347/310
f 279/335/311 294/345/311 295/348/311
f 287/337/312 302/347/312 303/349/312
f 280/338/313 295/348/313 296/350/313
f 289/324/314 288/323/314 303/349/314
f 281/322/315 296/350/315 297/352/315
f 289/324/316 304/351/316 305/353/316
f 283/327/317 282/325/317 297/352/317
f 291/328/318 290/326/318 305/353/318
f 283/327/319 298/354/319 299/339/319
f 291/328/320 306/355/320 307/341/320
f 304/351/321 303/349/321 318/356/321
f 296/350/322 311/372/322 312/358/322
f 304/351/323 319/357/323 320/359/323
f 298/354/324 297/352/324 312/358/324
f 306/355/325 305/353/325 320/359/325
f 298/354/326 313/360/326 314/362/326
f 306/355/327 321/361/327 322/363/327
f 300/340/328 299/339/328 314/362/328
f 307/341/525 322/363/525 323/365/525
f 301/343/330 300/340/330 315/364/330
f 301/343/333 316/366/333 317/370/333
f 294/345/334 309/368/334 310/371/334
f 302/347/335 317/370/335 318/356/335
f 295/348/336 310/371/336 311/372/336
f 322/363/337 337/389/337 338/373/337
f 316/366/338 315/364/338 330/374/338
f 316/366/341 331/375/341 332/379/341
f 309/368/342 324/377/342 325/380/342
f 317/370/343 332/379/343 333/381/343
f 310/371/344 325/380/344 326/382/344
f 319/357/345 318/356/345 333/381/345
f 311/372/346 326/382/346 327/384/346
f 319/357/347 334/383/347 335/385/347
f 312/358/348 327/384/348 328/386/348
f 321/361/349 320/359/349 335/385/349
f 313/360/350 328/386/350 329/388/350
f 321/361/526 336/387/526 337/389/526
f 315/364/352 314/362/352 329/388/352
f 334/383/353 349/406/353 350/390/353
f 328/386/354 327/384/354 342/391/354
f 336/387/355 335/385/355 350/390/355
f 328/386/356 343/392/356 344/394/356
f 336/387/357 351/393/357 352/395/357
f 330/374/358 329/388/358 344/394/358
f 337/389/359 352/395/359 353/397/359
f 331/375/360 330/374/360 345/396/360
f 331/375/363 346/398/363 347/402/363
f 324/377/364 339/400/364 340/403/364
f 332/379/365 347/402/365 348/404/365
f 325/380/366 340/403/366 341/405/366
f 334/383/367 333/381/367 348/404/367
f 326/382/368 341/405/368 342/391/368
f 346/398/527 361/423/527 362/411/527
f 339/400/372 354/408/372 355/412/372
f 347/402/373 362/411/373 363/413/373
f 341/405/374 340/403/374 355/412/374
f 349/406/375 348/404/375 363/413/375
f 341/405/376 356/414/376 357/416/376
f 349/406/377 364/415/377 365/417/377
f 343/392/378 342/391/378 357/416/378
f 351/393/379 350/390/379 365/417/379
f 343/392/380 358/418/380 359/420/380
f 351/393/381 366/419/381 367/421/381
f 345/396/382 344/394/382 359/420/382
f 352/395/383 367/421/383 368/410/383
f 346/398/528 345/396/528 360/422/528
f 358/424/385 357/454/385 372/425/385
f 366/427/386 365/455/386 380/428/386
f 358/424/387 373/426/387 374/430/387
f 366/427/388 381/429/388 382/432/388
f 360/434/389 359/431/389 374/430/389
f 367/433/390 382/432/390 383/436/390
f 361/438/529 360/434/529 375/435/529
f 361/438/530 376/439/530 377/444/530
f 354/440/395 369/442/395 370/446/395
f 362/445/396 377/444/396 378/448/396
f 356/450/397 355/447/397 370/446/397
f 364/452/398 363/449/398 378/448/398
f 356/450/399 371/451/399 372/425/399
f 364/452/400 379/453/400 380/428/400
f 376/439/401 391/469/401 392/456/401
f 369/442/402 384/471/402 385/457/402
f 377/444/403 392/456/403 393/458/403
f 371/451/404 370/446/404 385/457/404
f 379/453/405 378/448/405 393/458/405
f 371/451/406 386/459/406 387/461/406
f 379/453/407 394/460/407 395/462/407
f 373/426/408 372/425/408 387/461/408
f 381/429/409 380/428/409 395/462/409
f 373/426/410 388/463/410 389/465/410
f 381/429/411 396/464/411 397/466/411
f 375/435/412 374/430/412 389/465/412
f 382/432/413 397/466/413 398/468/413
f 376/439/414 375/435/414 390/467/414
f 396/464/417 395/462/417 410/473/417
f 388/463/418 403/489/418 404/475/418
f 397/466/419 396/464/419 411/474/419
f 390/467/420 389/465/420 404/475/420
f 397/466/421 412/476/421 413/478/421
f 391/469/422 390/467/422 405/477/422
f 391/469/425 406/479/425 407/483/425
f 385/457/426 384/471/426 399/481/426
f 392/456/427 407/483/427 408/485/427
f 385/457/428 400/484/428 401/486/428
f 394/460/429 393/458/429 408/485/429
f 386/459/430 401/486/430 402/488/430
f 394/460/431 409/487/431 410/473/431
f 388/463/432 387/461/432 402/488/432
f 399/481/433 414/504/433 415/490/433
f 407/483/434 422/506/434 423/491/434
f 401/486/435 400/484/435 415/490/435
f 409/487/436 408/485/436 423/491/436
f 401/486/437 416/492/437 417/494/437
f 409/487/438 424/493/438 425/495/438
f 403/489/439 402/488/439 417/494/439
f 411/474/440 410/473/440 425/495/440
f 403/489/441 418/496/441 419/498/441
f 411/474/442 426/497/442 427/499/442
f 405/477/443 404/475/443 419/498/443
f 412/476/444 427/499/444 428/501/444
f 406/479/445 405/477/445 420/500/445
f 406/479/448 421/502/448 422/506/448
f 418/496/449 433/522/449 434/507/449
f 426/497/450 441/523/450 442/508/450
f 420/500/451 419/498/451 434/507/451
f 427/499/452 442/508/452 443/510/452
f 421/502/453 420/500/453 435/509/453
f 421/502/456 436/511/456 437/515/456
f 414/504/457 429/513/457 430/516/457
f 422/506/458 437/515/458 438/517/458
f 416/492/459 415/490/459 430/516/459
f 424/493/460 423/491/460 438/517/460
f 416/492/461 431/518/461 432/520/461
f 424/493/462 439/519/462 440/521/462
f 418/496/463 417/494/463 432/520/463
f 426/497/464 425/495/464 440/521/464
f 437/515/465 452/539/465 453/524/465
f 430/516/466 445/540/466 446/525/466
f 439/519/467 438/517/467 453/524/467
f 431/518/468 446/525/468 447/527/468
f 439/519/469 454/526/469 455/528/469
f 433/522/470 432/520/470 447/527/470
f 441/523/471 440/521/471 455/528/471
f 433/522/472 448/529/472 449/531/472
f 441/523/473 456/530/473 457/532/473
f 435/509/474 434/507/474 449/531/474
f 442/508/475 457/532/475 458/534/475
f 436/511/476 435/509/476 450/533/476
f 436/511/479 451/535/479 452/539/479
f 430/516/480 429/513/480 444/537/480
f 456/530/481 471/557/481 472/541/481
f 450/533/482 449/531/482 464/542/482
f 458/534/483 457/532/483 472/541/483
f 451/535/484 450/533/484 465/543/484
f 451/535/487 466/545/487 467/549/487
f 444/537/488 459/547/488 460/550/488
f 452/539/489 467/549/489 468/551/489
f 446/525/490 445/540/490 460/550/490
f 454/526/491 453/524/491 468/551/491
f 446/525/492 461/552/492 462/554/492
f 454/526/493 469/553/493 470/555/493
f 448/529/494 447/527/494 462/554/494
f 456/530/495 455/528/495 470/555/495
f 448/529/496 463/556/496 464/542/496
f 468/551/497 478/4/497 7/6/497
f 462/554/498 461/552/498 2/1/498
f 469/553/499 7/6/499 479/10/499
f 463/556/500 462/554/500 476/7/500
f 471/557/501 470/555/501 479/10/501
f 464/542/502 463/556/502 3/11/502
f 471/557/503 480/14/503 481/18/503
f 465/543/504 464/542/504 477/15/504
f 472/541/505 481/18/505 482/22/505
f 466/545/506 465/543/506 4/19/506
f 466/545/509 5/24/509 6/30/509
f 460/550/510 459/547/510 474/25/510
f 467/549/511 6/30/511 478/4/511
f 461/552/512 460/550/512 475/31/512
